# MagicaVoxel @ ephtracy

# material
mtllib ghost1.mtl
usemtl palette

# normals
vn -1 0 0
vn 1 0 0
vn 0 0 1
vn 0 0 -1
vn 0 -1 0
vn 0 1 0

# texcoords
vt 0.142578 0.5
vt 0.173828 0.5
vt 0.673828 0.5
vt 0.701172 0.5
vt 0.873047 0.5

# verts
v -13 1 13
v -13 1 9
v -13 1 3
v -13 1 -3
v -13 1 -9
v -13 1 -13
v -13 7 9
v -13 7 3
v -13 7 -3
v -13 7 -9
v -13 35 13
v -13 35 -13
v -3 1 13
v -3 1 9
v -3 1 -9
v -3 1 -13
v -3 7 13
v -3 7 9
v -3 7 -9
v -3 7 -13
v 7 1 13
v 7 1 9
v 7 1 3
v 7 1 -3
v 7 1 -9
v 7 1 -13
v 7 7 13
v 7 7 9
v 7 7 3
v 7 7 -3
v 7 7 -9
v 7 7 -13
v -8 1 13
v -8 1 9
v -8 1 3
v -8 1 -3
v -8 1 -9
v -8 1 -13
v -8 7 13
v -8 7 9
v -8 7 3
v -8 7 -3
v -8 7 -9
v -8 7 -13
v 2 1 13
v 2 1 9
v 2 1 -9
v 2 1 -13
v 2 7 13
v 2 7 9
v 2 7 -9
v 2 7 -13
v 8 19 9
v 8 19 4
v 8 19 3
v 8 19 -3
v 8 19 -4
v 8 19 -9
v 8 28 9
v 8 28 4
v 8 28 3
v 8 28 -3
v 8 28 -4
v 8 28 -9
v 11 11 1
v 11 11 -1
v 11 13 1
v 11 13 -0
v 11 14 -0
v 11 14 -1
v 11 16 1
v 11 16 -1
v 12 1 13
v 12 1 9
v 12 1 3
v 12 1 -3
v 12 1 -9
v 12 1 -13
v 12 7 9
v 12 7 3
v 12 7 -3
v 12 7 -9
v 12 11 1
v 12 11 -1
v 12 16 1
v 12 16 -1
v 12 19 9
v 12 19 3
v 12 19 -3
v 12 19 -9
v 12 28 9
v 12 28 3
v 12 28 -3
v 12 28 -9
v 12 35 13
v 12 35 -13
v -13 1 13
v -13 35 13
v -8 1 13
v -8 7 13
v -3 1 13
v -3 7 13
v 2 1 13
v 2 7 13
v 7 1 13
v 7 7 13
v 12 1 13
v 12 35 13
v -13 1 3
v -13 7 3
v -8 1 3
v -8 7 3
v 7 1 3
v 7 7 3
v 8 19 3
v 8 28 3
v 12 1 3
v 12 7 3
v 12 19 3
v 12 28 3
v 11 11 -1
v 11 14 -1
v 11 16 -1
v 12 11 -1
v 12 16 -1
v -13 1 -9
v -13 7 -9
v -8 1 -9
v -8 7 -9
v -3 1 -9
v -3 7 -9
v 2 1 -9
v 2 7 -9
v 7 1 -9
v 7 7 -9
v 8 19 -9
v 8 28 -9
v 12 1 -9
v 12 7 -9
v 12 19 -9
v 12 28 -9
v -13 1 9
v -13 7 9
v -8 1 9
v -8 7 9
v -3 1 9
v -3 7 9
v 2 1 9
v 2 7 9
v 7 1 9
v 7 7 9
v 8 19 9
v 8 28 9
v 12 1 9
v 12 7 9
v 12 19 9
v 12 28 9
v 11 11 1
v 11 13 1
v 11 16 1
v 12 11 1
v 12 16 1
v -13 1 -3
v -13 7 -3
v -8 1 -3
v -8 7 -3
v 7 1 -3
v 7 7 -3
v 8 19 -3
v 8 28 -3
v 12 1 -3
v 12 7 -3
v 12 19 -3
v 12 28 -3
v -13 1 -13
v -13 35 -13
v -8 1 -13
v -8 7 -13
v -3 1 -13
v -3 7 -13
v 2 1 -13
v 2 7 -13
v 7 1 -13
v 7 7 -13
v 12 1 -13
v 12 35 -13
v -13 1 13
v -8 1 13
v -3 1 13
v 2 1 13
v 7 1 13
v 12 1 13
v -13 1 9
v -8 1 9
v -3 1 9
v 2 1 9
v 7 1 9
v 12 1 9
v -13 1 3
v -8 1 3
v 7 1 3
v 12 1 3
v -13 1 -3
v -8 1 -3
v 7 1 -3
v 12 1 -3
v -13 1 -9
v -8 1 -9
v -3 1 -9
v 2 1 -9
v 7 1 -9
v 12 1 -9
v -13 1 -13
v -8 1 -13
v -3 1 -13
v 2 1 -13
v 7 1 -13
v 12 1 -13
v -8 7 13
v -3 7 13
v 2 7 13
v 7 7 13
v -13 7 9
v -8 7 9
v -3 7 9
v 2 7 9
v 7 7 9
v 12 7 9
v -13 7 3
v -8 7 3
v 7 7 3
v 12 7 3
v -13 7 -3
v -8 7 -3
v 7 7 -3
v 12 7 -3
v -13 7 -9
v -8 7 -9
v -3 7 -9
v 2 7 -9
v 7 7 -9
v 12 7 -9
v -8 7 -13
v -3 7 -13
v 2 7 -13
v 7 7 -13
v 11 16 1
v 12 16 1
v 11 16 -1
v 12 16 -1
v 8 28 9
v 12 28 9
v 8 28 4
v 8 28 3
v 12 28 3
v 8 28 -3
v 12 28 -3
v 8 28 -4
v 8 28 -9
v 12 28 -9
v 11 11 1
v 12 11 1
v 11 11 -1
v 12 11 -1
v 8 19 9
v 12 19 9
v 8 19 4
v 8 19 3
v 12 19 3
v 8 19 -3
v 12 19 -3
v 8 19 -4
v 8 19 -9
v 12 19 -9
v -13 35 13
v 12 35 13
v -13 35 -13
v 12 35 -13

# faces
f 7/1/1 2/1/1 1/1/1
f 8/1/1 4/1/1 3/1/1
f 9/1/1 4/1/1 8/1/1
f 10/1/1 6/1/1 5/1/1
f 11/1/1 9/1/1 8/1/1
f 11/1/1 10/1/1 9/1/1
f 11/1/1 7/1/1 1/1/1
f 11/1/1 8/1/1 7/1/1
f 12/1/1 6/1/1 10/1/1
f 12/1/1 10/1/1 11/1/1
f 17/1/1 14/1/1 13/1/1
f 18/1/1 14/1/1 17/1/1
f 19/1/1 16/1/1 15/1/1
f 20/1/1 16/1/1 19/1/1
f 27/1/1 22/1/1 21/1/1
f 28/1/1 22/1/1 27/1/1
f 29/1/1 24/1/1 23/1/1
f 30/1/1 24/1/1 29/1/1
f 31/1/1 26/1/1 25/1/1
f 32/1/1 26/1/1 31/1/1
f 33/1/2 34/1/2 39/1/2
f 39/1/2 34/1/2 40/1/2
f 35/1/2 36/1/2 41/1/2
f 41/1/2 36/1/2 42/1/2
f 37/1/2 38/1/2 43/1/2
f 43/1/2 38/1/2 44/1/2
f 45/1/2 46/1/2 49/1/2
f 49/1/2 46/1/2 50/1/2
f 47/1/2 48/1/2 51/1/2
f 51/1/2 48/1/2 52/1/2
f 53/4/2 54/4/2 59/4/2
f 54/5/2 55/5/2 60/5/2
f 59/4/2 54/4/2 60/4/2
f 60/5/2 55/5/2 61/5/2
f 56/5/2 57/5/2 62/5/2
f 57/4/2 58/4/2 63/4/2
f 62/5/2 57/5/2 63/5/2
f 63/4/2 58/4/2 64/4/2
f 65/5/2 66/5/2 67/5/2
f 67/5/2 66/5/2 68/5/2
f 67/4/2 68/4/2 69/4/2
f 68/5/2 66/5/2 69/5/2
f 69/5/2 66/5/2 70/5/2
f 67/4/2 69/4/2 71/4/2
f 69/4/2 70/4/2 71/4/2
f 71/4/2 70/4/2 72/4/2
f 73/1/2 74/1/2 79/1/2
f 75/1/2 76/1/2 80/1/2
f 80/1/2 76/1/2 81/1/2
f 77/1/2 78/1/2 82/1/2
f 80/1/2 81/1/2 83/1/2
f 81/1/2 82/1/2 83/1/2
f 79/1/2 80/1/2 83/1/2
f 83/1/2 82/1/2 84/1/2
f 79/1/2 83/1/2 85/1/2
f 84/1/2 82/1/2 86/1/2
f 73/1/2 79/1/2 87/1/2
f 85/1/2 86/1/2 87/1/2
f 79/1/2 85/1/2 87/1/2
f 87/1/2 86/1/2 88/1/2
f 86/1/2 82/1/2 89/1/2
f 88/1/2 86/1/2 89/1/2
f 82/1/2 78/1/2 90/1/2
f 89/1/2 82/1/2 90/1/2
f 73/1/2 87/1/2 91/1/2
f 88/1/2 89/1/2 92/1/2
f 92/1/2 89/1/2 93/1/2
f 90/1/2 78/1/2 94/1/2
f 73/1/2 91/1/2 95/1/2
f 93/1/2 94/1/2 95/1/2
f 92/1/2 93/1/2 95/1/2
f 91/1/2 92/1/2 95/1/2
f 94/1/2 78/1/2 96/1/2
f 95/1/2 94/1/2 96/1/2
f 99/1/3 98/1/3 97/1/3
f 100/1/3 98/1/3 99/1/3
f 102/1/3 98/1/3 100/1/3
f 103/1/3 102/1/3 101/1/3
f 104/1/3 98/1/3 102/1/3
f 104/1/3 102/1/3 103/1/3
f 106/1/3 98/1/3 104/1/3
f 107/1/3 106/1/3 105/1/3
f 108/1/3 98/1/3 106/1/3
f 108/1/3 106/1/3 107/1/3
f 111/1/3 110/1/3 109/1/3
f 112/1/3 110/1/3 111/1/3
f 117/1/3 114/1/3 113/1/3
f 118/1/3 114/1/3 117/1/3
f 119/1/3 116/1/3 115/1/3
f 120/1/3 116/1/3 119/1/3
f 124/1/3 122/1/3 121/1/3
f 124/1/3 123/1/3 122/1/3
f 125/1/3 123/1/3 124/1/3
f 128/1/3 127/1/3 126/1/3
f 129/1/3 127/1/3 128/1/3
f 132/1/3 131/1/3 130/1/3
f 133/1/3 131/1/3 132/1/3
f 138/1/3 135/1/3 134/1/3
f 139/1/3 135/1/3 138/1/3
f 140/1/3 137/1/3 136/1/3
f 141/1/3 137/1/3 140/1/3
f 142/1/4 143/1/4 144/1/4
f 144/1/4 143/1/4 145/1/4
f 146/1/4 147/1/4 148/1/4
f 148/1/4 147/1/4 149/1/4
f 150/1/4 151/1/4 154/1/4
f 154/1/4 151/1/4 155/1/4
f 152/1/4 153/1/4 156/1/4
f 156/1/4 153/1/4 157/1/4
f 158/1/4 159/1/4 161/1/4
f 159/1/4 160/1/4 161/1/4
f 161/1/4 160/1/4 162/1/4
f 163/1/4 164/1/4 165/1/4
f 165/1/4 164/1/4 166/1/4
f 167/1/4 168/1/4 171/1/4
f 171/1/4 168/1/4 172/1/4
f 169/1/4 170/1/4 173/1/4
f 173/1/4 170/1/4 174/1/4
f 175/1/4 176/1/4 177/1/4
f 177/1/4 176/1/4 178/1/4
f 178/1/4 176/1/4 180/1/4
f 179/1/4 180/1/4 181/1/4
f 180/1/4 176/1/4 182/1/4
f 181/1/4 180/1/4 182/1/4
f 182/1/4 176/1/4 184/1/4
f 183/1/4 184/1/4 185/1/4
f 184/1/4 176/1/4 186/1/4
f 185/1/4 184/1/4 186/1/4
f 193/1/5 188/1/5 187/1/5
f 194/1/5 188/1/5 193/1/5
f 195/1/5 190/1/5 189/1/5
f 196/1/5 190/1/5 195/1/5
f 197/1/5 192/1/5 191/1/5
f 198/1/5 192/1/5 197/1/5
f 203/1/5 200/1/5 199/1/5
f 204/1/5 200/1/5 203/1/5
f 205/1/5 202/1/5 201/1/5
f 206/1/5 202/1/5 205/1/5
f 213/1/5 208/1/5 207/1/5
f 214/1/5 208/1/5 213/1/5
f 215/1/5 210/1/5 209/1/5
f 216/1/5 210/1/5 215/1/5
f 217/1/5 212/1/5 211/1/5
f 218/1/5 212/1/5 217/1/5
f 224/1/5 220/1/5 219/1/5
f 225/1/5 220/1/5 224/1/5
f 226/1/5 222/1/5 221/1/5
f 227/1/5 222/1/5 226/1/5
f 229/1/5 225/1/5 224/1/5
f 229/1/5 228/1/5 227/1/5
f 229/1/5 227/1/5 226/1/5
f 229/1/5 226/1/5 225/1/5
f 229/1/5 224/1/5 223/1/5
f 230/1/5 228/1/5 229/1/5
f 231/1/5 228/1/5 230/1/5
f 232/1/5 228/1/5 231/1/5
f 234/1/5 231/1/5 230/1/5
f 235/1/5 231/1/5 234/1/5
f 237/1/5 234/1/5 233/1/5
f 237/1/5 236/1/5 235/1/5
f 237/1/5 235/1/5 234/1/5
f 238/1/5 236/1/5 237/1/5
f 239/1/5 236/1/5 238/1/5
f 240/1/5 236/1/5 239/1/5
f 241/1/5 236/1/5 240/1/5
f 242/1/5 236/1/5 241/1/5
f 243/1/5 239/1/5 238/1/5
f 244/1/5 239/1/5 243/1/5
f 245/1/5 241/1/5 240/1/5
f 246/1/5 241/1/5 245/1/5
f 249/1/5 248/1/5 247/1/5
f 250/1/5 248/1/5 249/1/5
f 253/1/5 252/1/5 251/1/5
f 254/1/5 252/1/5 253/1/5
f 255/1/5 252/1/5 254/1/5
f 258/1/5 257/1/5 256/1/5
f 259/1/5 257/1/5 258/1/5
f 260/1/5 257/1/5 259/1/5
f 261/1/6 262/1/6 263/1/6
f 263/1/6 262/1/6 264/1/6
f 265/1/6 266/1/6 267/1/6
f 267/1/6 266/1/6 268/1/6
f 268/1/6 266/1/6 269/1/6
f 270/1/6 271/1/6 272/1/6
f 272/1/6 271/1/6 273/1/6
f 273/1/6 271/1/6 274/1/6
f 275/1/6 276/1/6 277/1/6
f 277/1/6 276/1/6 278/1/6
