# MagicaVoxel @ ephtracy

# material
mtllib pumpkin.mtl
usemtl palette

# normals
vn -1 0 0
vn 1 0 0
vn 0 0 1
vn 0 0 -1
vn 0 -1 0
vn 0 1 0

# texcoords
vt 0.306641 0.5
vt 0.369141 0.5
vt 0.373047 0.5
vt 0.818359 0.5
vt 0.869141 0.5

# verts
v -20.5 2 20.5
v -20.5 2 7.5
v -20.5 2 5.5
v -20.5 2 -5.5
v -20.5 2 -7.5
v -20.5 2 -20.5
v -20.5 33 20.5
v -20.5 33 7.5
v -20.5 33 5.5
v -20.5 33 -5.5
v -20.5 33 -7.5
v -20.5 33 -20.5
v -19.5 2 7.5
v -19.5 2 5.5
v -19.5 2 -5.5
v -19.5 2 -7.5
v -19.5 32 7.5
v -19.5 32 5.5
v -19.5 32 -5.5
v -19.5 32 -7.5
v -10.5 10 -19.5
v -10.5 10 -20.5
v -10.5 13 -19.5
v -10.5 13 -20.5
v -7.5 32 7.5
v -7.5 32 5.5
v -7.5 32 -5.5
v -7.5 32 -7.5
v -7.5 33 7.5
v -7.5 33 5.5
v -7.5 33 -5.5
v -7.5 33 -7.5
v -7.5 35 7.5
v -7.5 35 -7.5
v -5.5 2 20.5
v -5.5 2 19.5
v -5.5 2 18.5
v -5.5 19 -16.5
v -5.5 19 -19.5
v -5.5 19 -20.5
v -5.5 24 -18.5
v -5.5 24 -19.5
v -5.5 25 -16.5
v -5.5 25 -18.5
v -5.5 25 -19.5
v -5.5 25 -20.5
v -5.5 32 19.5
v -5.5 32 18.5
v -5.5 32 7.5
v -5.5 32 -7.5
v -5.5 32 -18.5
v -5.5 32 -20.5
v -5.5 33 20.5
v -5.5 33 7.5
v -5.5 33 -7.5
v -5.5 33 -20.5
v -4.5 10 -19.5
v -4.5 10 -20.5
v -4.5 13 -19.5
v -4.5 13 -20.5
v -2.5 35 2.5
v -2.5 35 -2.5
v -2.5 40 2.5
v -2.5 40 -2.5
v 1.5 10 -19.5
v 1.5 10 -20.5
v 1.5 13 -19.5
v 1.5 13 -20.5
v 2.5 16 -19.5
v 2.5 16 -20.5
v 2.5 18 -19.5
v 2.5 18 -20.5
v 7.5 2 20.5
v 7.5 2 19.5
v 7.5 2 18.5
v 7.5 10 -19.5
v 7.5 10 -20.5
v 7.5 13 -19.5
v 7.5 13 -20.5
v 7.5 32 19.5
v 7.5 32 18.5
v 7.5 32 7.5
v 7.5 32 -7.5
v 7.5 32 -18.5
v 7.5 32 -20.5
v 7.5 33 20.5
v 7.5 33 7.5
v 7.5 33 -7.5
v 7.5 33 -20.5
v 12.5 19 -16.5
v 12.5 19 -19.5
v 12.5 19 -20.5
v 12.5 25 -16.5
v 12.5 25 -19.5
v 12.5 25 -20.5
v 13.5 8 -18.5
v 13.5 8 -19.5
v 13.5 8 -20.5
v 13.5 13 -18.5
v 13.5 13 -19.5
v 13.5 13 -20.5
v -13.5 8 -19.5
v -13.5 8 -20.5
v -13.5 13 -19.5
v -13.5 13 -20.5
v -12.5 19 -16.5
v -12.5 19 -19.5
v -12.5 19 -20.5
v -12.5 25 -16.5
v -12.5 25 -19.5
v -12.5 25 -20.5
v -7.5 2 20.5
v -7.5 2 19.5
v -7.5 2 18.5
v -7.5 10 -19.5
v -7.5 10 -20.5
v -7.5 13 -19.5
v -7.5 13 -20.5
v -7.5 32 19.5
v -7.5 32 18.5
v -7.5 32 7.5
v -7.5 32 -7.5
v -7.5 32 -18.5
v -7.5 32 -20.5
v -7.5 33 20.5
v -7.5 33 7.5
v -7.5 33 -7.5
v -7.5 33 -20.5
v -2.5 16 -19.5
v -2.5 16 -20.5
v -2.5 18 -19.5
v -2.5 18 -20.5
v -1.5 10 -19.5
v -1.5 10 -20.5
v -1.5 13 -19.5
v -1.5 13 -20.5
v 2.5 35 2.5
v 2.5 35 -2.5
v 2.5 40 2.5
v 2.5 40 -2.5
v 4.5 10 -19.5
v 4.5 10 -20.5
v 4.5 13 -19.5
v 4.5 13 -20.5
v 5.5 2 20.5
v 5.5 2 19.5
v 5.5 2 18.5
v 5.5 19 -16.5
v 5.5 19 -19.5
v 5.5 19 -20.5
v 5.5 24 -18.5
v 5.5 24 -19.5
v 5.5 25 -16.5
v 5.5 25 -18.5
v 5.5 25 -19.5
v 5.5 25 -20.5
v 5.5 32 19.5
v 5.5 32 18.5
v 5.5 32 7.5
v 5.5 32 -7.5
v 5.5 32 -18.5
v 5.5 32 -20.5
v 5.5 33 20.5
v 5.5 33 7.5
v 5.5 33 -7.5
v 5.5 33 -20.5
v 7.5 32 7.5
v 7.5 32 5.5
v 7.5 32 -5.5
v 7.5 32 -7.5
v 7.5 33 7.5
v 7.5 33 5.5
v 7.5 33 -5.5
v 7.5 33 -7.5
v 7.5 35 7.5
v 7.5 35 -7.5
v 10.5 8 -18.5
v 10.5 8 -19.5
v 10.5 10 -18.5
v 10.5 10 -19.5
v 10.5 10 -20.5
v 10.5 13 -18.5
v 10.5 13 -20.5
v 19.5 2 7.5
v 19.5 2 5.5
v 19.5 2 -5.5
v 19.5 2 -7.5
v 19.5 32 7.5
v 19.5 32 5.5
v 19.5 32 -5.5
v 19.5 32 -7.5
v 20.5 2 20.5
v 20.5 2 7.5
v 20.5 2 5.5
v 20.5 2 -5.5
v 20.5 2 -7.5
v 20.5 2 -20.5
v 20.5 33 20.5
v 20.5 33 7.5
v 20.5 33 5.5
v 20.5 33 -5.5
v 20.5 33 -7.5
v 20.5 33 -20.5
v -20.5 2 20.5
v -20.5 33 20.5
v -7.5 2 20.5
v -7.5 33 20.5
v -5.5 2 20.5
v -5.5 33 20.5
v 5.5 2 20.5
v 5.5 33 20.5
v 7.5 2 20.5
v 7.5 33 20.5
v 20.5 2 20.5
v 20.5 33 20.5
v -7.5 2 18.5
v -7.5 32 18.5
v -5.5 2 18.5
v -5.5 32 18.5
v 5.5 2 18.5
v 5.5 32 18.5
v 7.5 2 18.5
v 7.5 32 18.5
v -7.5 32 7.5
v -7.5 33 7.5
v -7.5 35 7.5
v -5.5 32 7.5
v -5.5 33 7.5
v 5.5 32 7.5
v 5.5 33 7.5
v 7.5 32 7.5
v 7.5 33 7.5
v 7.5 35 7.5
v -20.5 2 5.5
v -20.5 33 5.5
v -19.5 2 5.5
v -19.5 32 5.5
v -7.5 32 5.5
v -7.5 33 5.5
v 7.5 32 5.5
v 7.5 33 5.5
v 19.5 2 5.5
v 19.5 32 5.5
v 20.5 2 5.5
v 20.5 33 5.5
v -2.5 35 2.5
v -2.5 40 2.5
v 2.5 35 2.5
v 2.5 40 2.5
v -20.5 2 -7.5
v -20.5 33 -7.5
v -19.5 2 -7.5
v -19.5 32 -7.5
v -7.5 32 -7.5
v -7.5 33 -7.5
v 7.5 32 -7.5
v 7.5 33 -7.5
v 19.5 2 -7.5
v 19.5 32 -7.5
v 20.5 2 -7.5
v 20.5 33 -7.5
v -20.5 2 7.5
v -20.5 33 7.5
v -19.5 2 7.5
v -19.5 32 7.5
v -7.5 32 7.5
v -7.5 33 7.5
v 7.5 32 7.5
v 7.5 33 7.5
v 19.5 2 7.5
v 19.5 32 7.5
v 20.5 2 7.5
v 20.5 33 7.5
v -2.5 35 -2.5
v -2.5 40 -2.5
v 2.5 35 -2.5
v 2.5 40 -2.5
v -20.5 2 -5.5
v -20.5 33 -5.5
v -19.5 2 -5.5
v -19.5 32 -5.5
v -7.5 32 -5.5
v -7.5 33 -5.5
v 7.5 32 -5.5
v 7.5 33 -5.5
v 19.5 2 -5.5
v 19.5 32 -5.5
v 20.5 2 -5.5
v 20.5 33 -5.5
v -7.5 32 -7.5
v -7.5 33 -7.5
v -7.5 35 -7.5
v -5.5 32 -7.5
v -5.5 33 -7.5
v 5.5 32 -7.5
v 5.5 33 -7.5
v 7.5 32 -7.5
v 7.5 33 -7.5
v 7.5 35 -7.5
v -12.5 19 -16.5
v -12.5 25 -16.5
v -5.5 19 -16.5
v -5.5 25 -16.5
v 5.5 19 -16.5
v 5.5 25 -16.5
v 12.5 19 -16.5
v 12.5 25 -16.5
v 10.5 8 -18.5
v 10.5 10 -18.5
v 10.5 13 -18.5
v 12.5 13 -18.5
v 13.5 8 -18.5
v 13.5 13 -18.5
v -13.5 8 -19.5
v -13.5 13 -19.5
v -10.5 10 -19.5
v -10.5 13 -19.5
v -7.5 10 -19.5
v -7.5 13 -19.5
v -4.5 10 -19.5
v -4.5 13 -19.5
v -2.5 16 -19.5
v -2.5 18 -19.5
v -1.5 10 -19.5
v -1.5 13 -19.5
v 1.5 10 -19.5
v 1.5 13 -19.5
v 2.5 16 -19.5
v 2.5 18 -19.5
v 4.5 10 -19.5
v 4.5 13 -19.5
v 7.5 10 -19.5
v 7.5 13 -19.5
v 10.5 8 -19.5
v 10.5 10 -19.5
v -20.5 2 -20.5
v -20.5 33 -20.5
v -13.5 8 -20.5
v -13.5 13 -20.5
v -12.5 19 -20.5
v -12.5 25 -20.5
v -10.5 10 -20.5
v -10.5 13 -20.5
v -7.5 10 -20.5
v -7.5 13 -20.5
v -7.5 32 -20.5
v -7.5 33 -20.5
v -5.5 19 -20.5
v -5.5 25 -20.5
v -5.5 32 -20.5
v -5.5 33 -20.5
v -4.5 10 -20.5
v -4.5 13 -20.5
v -2.5 16 -20.5
v -2.5 18 -20.5
v -1.5 10 -20.5
v -1.5 13 -20.5
v 1.5 10 -20.5
v 1.5 13 -20.5
v 2.5 16 -20.5
v 2.5 18 -20.5
v 4.5 10 -20.5
v 4.5 13 -20.5
v 5.5 19 -20.5
v 5.5 25 -20.5
v 5.5 32 -20.5
v 5.5 33 -20.5
v 7.5 10 -20.5
v 7.5 13 -20.5
v 7.5 32 -20.5
v 7.5 33 -20.5
v 10.5 10 -20.5
v 10.5 13 -20.5
v 12.5 19 -20.5
v 12.5 25 -20.5
v 13.5 8 -20.5
v 13.5 13 -20.5
v 20.5 2 -20.5
v 20.5 33 -20.5
v -20.5 2 20.5
v -7.5 2 20.5
v -5.5 2 20.5
v 5.5 2 20.5
v 7.5 2 20.5
v 20.5 2 20.5
v -8.5 2 19.5
v -7.5 2 19.5
v -5.5 2 19.5
v -4.5 2 19.5
v 4.5 2 19.5
v 5.5 2 19.5
v 7.5 2 19.5
v 8.5 2 19.5
v -8.5 2 18.5
v -7.5 2 18.5
v -5.5 2 18.5
v -4.5 2 18.5
v 4.5 2 18.5
v 5.5 2 18.5
v 7.5 2 18.5
v 8.5 2 18.5
v -7.5 2 17.5
v -5.5 2 17.5
v 5.5 2 17.5
v 7.5 2 17.5
v -20.5 2 7.5
v -19.5 2 7.5
v -18.5 2 7.5
v 18.5 2 7.5
v 19.5 2 7.5
v 20.5 2 7.5
v -20.5 2 5.5
v -19.5 2 5.5
v -18.5 2 5.5
v 18.5 2 5.5
v 19.5 2 5.5
v 20.5 2 5.5
v -20.5 2 -5.5
v -19.5 2 -5.5
v -18.5 2 -5.5
v 18.5 2 -5.5
v 19.5 2 -5.5
v 20.5 2 -5.5
v -20.5 2 -7.5
v -19.5 2 -7.5
v -18.5 2 -7.5
v 18.5 2 -7.5
v 19.5 2 -7.5
v 20.5 2 -7.5
v -7.5 2 -17.5
v -5.5 2 -17.5
v 5.5 2 -17.5
v 7.5 2 -17.5
v -8.5 2 -18.5
v -7.5 2 -18.5
v -5.5 2 -18.5
v -4.5 2 -18.5
v 4.5 2 -18.5
v 5.5 2 -18.5
v 7.5 2 -18.5
v 8.5 2 -18.5
v -8.5 2 -19.5
v -7.5 2 -19.5
v -5.5 2 -19.5
v -4.5 2 -19.5
v 4.5 2 -19.5
v 5.5 2 -19.5
v 7.5 2 -19.5
v 8.5 2 -19.5
v -20.5 2 -20.5
v 20.5 2 -20.5
v -10.5 10 -19.5
v -7.5 10 -19.5
v -4.5 10 -19.5
v -1.5 10 -19.5
v 1.5 10 -19.5
v 4.5 10 -19.5
v 7.5 10 -19.5
v 10.5 10 -19.5
v -10.5 10 -20.5
v -7.5 10 -20.5
v -4.5 10 -20.5
v -1.5 10 -20.5
v 1.5 10 -20.5
v 4.5 10 -20.5
v 7.5 10 -20.5
v 10.5 10 -20.5
v 10.5 13 -18.5
v 12.5 13 -18.5
v 13.5 13 -18.5
v -13.5 13 -19.5
v -10.5 13 -19.5
v -7.5 13 -19.5
v -4.5 13 -19.5
v -1.5 13 -19.5
v 1.5 13 -19.5
v 4.5 13 -19.5
v 7.5 13 -19.5
v 12.5 13 -19.5
v 13.5 13 -19.5
v -13.5 13 -20.5
v -10.5 13 -20.5
v -7.5 13 -20.5
v -4.5 13 -20.5
v -1.5 13 -20.5
v 1.5 13 -20.5
v 4.5 13 -20.5
v 7.5 13 -20.5
v 10.5 13 -20.5
v 13.5 13 -20.5
v -2.5 18 -19.5
v 2.5 18 -19.5
v -2.5 18 -20.5
v 2.5 18 -20.5
v -12.5 25 -16.5
v -5.5 25 -16.5
v 5.5 25 -16.5
v 12.5 25 -16.5
v -7.5 25 -18.5
v -5.5 25 -18.5
v 5.5 25 -18.5
v 7.5 25 -18.5
v -12.5 25 -19.5
v -7.5 25 -19.5
v -5.5 25 -19.5
v 5.5 25 -19.5
v 7.5 25 -19.5
v 12.5 25 -19.5
v -12.5 25 -20.5
v -5.5 25 -20.5
v 5.5 25 -20.5
v 12.5 25 -20.5
v 10.5 8 -18.5
v 13.5 8 -18.5
v -13.5 8 -19.5
v 10.5 8 -19.5
v 13.5 8 -19.5
v -13.5 8 -20.5
v 13.5 8 -20.5
v -2.5 16 -19.5
v 2.5 16 -19.5
v -2.5 16 -20.5
v 2.5 16 -20.5
v -12.5 19 -16.5
v -5.5 19 -16.5
v 5.5 19 -16.5
v 12.5 19 -16.5
v -12.5 19 -19.5
v -5.5 19 -19.5
v 5.5 19 -19.5
v 12.5 19 -19.5
v -12.5 19 -20.5
v -5.5 19 -20.5
v 5.5 19 -20.5
v 12.5 19 -20.5
v -7.5 32 18.5
v -5.5 32 18.5
v 5.5 32 18.5
v 7.5 32 18.5
v -19.5 32 7.5
v -7.5 32 7.5
v -5.5 32 7.5
v 5.5 32 7.5
v 7.5 32 7.5
v 19.5 32 7.5
v -19.5 32 5.5
v -7.5 32 5.5
v 7.5 32 5.5
v 19.5 32 5.5
v -19.5 32 -5.5
v -7.5 32 -5.5
v 7.5 32 -5.5
v 19.5 32 -5.5
v -19.5 32 -7.5
v -7.5 32 -7.5
v -5.5 32 -7.5
v 5.5 32 -7.5
v 7.5 32 -7.5
v 19.5 32 -7.5
v -7.5 32 -18.5
v -5.5 32 -18.5
v 5.5 32 -18.5
v 7.5 32 -18.5
v -7.5 32 -20.5
v -5.5 32 -20.5
v 5.5 32 -20.5
v 7.5 32 -20.5
v -20.5 33 20.5
v -7.5 33 20.5
v -5.5 33 20.5
v 5.5 33 20.5
v 7.5 33 20.5
v 20.5 33 20.5
v -20.5 33 7.5
v -7.5 33 7.5
v -5.5 33 7.5
v 5.5 33 7.5
v 7.5 33 7.5
v 20.5 33 7.5
v -20.5 33 5.5
v -7.5 33 5.5
v 7.5 33 5.5
v 20.5 33 5.5
v -20.5 33 -5.5
v -7.5 33 -5.5
v 7.5 33 -5.5
v 20.5 33 -5.5
v -20.5 33 -7.5
v -7.5 33 -7.5
v -5.5 33 -7.5
v 5.5 33 -7.5
v 7.5 33 -7.5
v 20.5 33 -7.5
v -20.5 33 -20.5
v -7.5 33 -20.5
v -5.5 33 -20.5
v 5.5 33 -20.5
v 7.5 33 -20.5
v 20.5 33 -20.5
v -7.5 35 7.5
v 7.5 35 7.5
v -2.5 35 2.5
v 2.5 35 2.5
v -2.5 35 -2.5
v 2.5 35 -2.5
v -7.5 35 -7.5
v 7.5 35 -7.5
v -2.5 40 2.5
v 2.5 40 2.5
v -2.5 40 -2.5
v 2.5 40 -2.5

# faces
f 7/3/1 2/3/1 1/3/1
f 8/3/1 2/3/1 7/3/1
f 9/3/1 4/3/1 3/3/1
f 10/3/1 4/3/1 9/3/1
f 11/3/1 6/3/1 5/3/1
f 12/3/1 6/3/1 11/3/1
f 17/2/1 14/2/1 13/2/1
f 18/2/1 14/2/1 17/2/1
f 19/2/1 16/2/1 15/2/1
f 20/2/1 16/2/1 19/2/1
f 23/3/1 22/3/1 21/3/1
f 24/3/1 22/3/1 23/3/1
f 29/4/1 26/4/1 25/4/1
f 30/4/1 26/4/1 29/4/1
f 31/4/1 28/4/1 27/4/1
f 32/4/1 28/4/1 31/4/1
f 33/4/1 30/4/1 29/4/1
f 33/4/1 31/4/1 30/4/1
f 33/4/1 32/4/1 31/4/1
f 34/4/1 32/4/1 33/4/1
f 41/5/1 39/5/1 38/5/1
f 42/3/1 40/3/1 39/3/1
f 42/5/1 39/5/1 41/5/1
f 43/5/1 41/5/1 38/5/1
f 44/2/1 42/2/1 41/2/1
f 44/5/1 41/5/1 43/5/1
f 45/3/1 40/3/1 42/3/1
f 45/2/1 42/2/1 44/2/1
f 46/3/1 40/3/1 45/3/1
f 47/3/1 36/3/1 35/3/1
f 47/2/1 37/2/1 36/2/1
f 48/2/1 37/2/1 47/2/1
f 53/3/1 47/3/1 35/3/1
f 53/3/1 48/3/1 47/3/1
f 53/3/1 49/3/1 48/3/1
f 54/3/1 49/3/1 53/3/1
f 55/3/1 52/3/1 51/3/1
f 55/3/1 51/3/1 50/3/1
f 56/3/1 52/3/1 55/3/1
f 59/3/1 58/3/1 57/3/1
f 60/3/1 58/3/1 59/3/1
f 63/4/1 62/4/1 61/4/1
f 64/4/1 62/4/1 63/4/1
f 67/3/1 66/3/1 65/3/1
f 68/3/1 66/3/1 67/3/1
f 71/3/1 70/3/1 69/3/1
f 72/3/1 70/3/1 71/3/1
f 78/3/1 77/3/1 76/3/1
f 79/3/1 77/3/1 78/3/1
f 80/3/1 74/3/1 73/3/1
f 80/2/1 75/2/1 74/2/1
f 81/2/1 75/2/1 80/2/1
f 86/3/1 80/3/1 73/3/1
f 86/3/1 81/3/1 80/3/1
f 86/3/1 82/3/1 81/3/1
f 87/3/1 82/3/1 86/3/1
f 88/3/1 85/3/1 84/3/1
f 88/3/1 84/3/1 83/3/1
f 89/3/1 85/3/1 88/3/1
f 93/5/1 91/5/1 90/5/1
f 94/3/1 92/3/1 91/3/1
f 94/5/1 91/5/1 93/5/1
f 95/3/1 92/3/1 94/3/1
f 99/5/1 97/5/1 96/5/1
f 100/3/1 98/3/1 97/3/1
f 100/5/1 97/5/1 99/5/1
f 101/3/1 98/3/1 100/3/1
f 102/3/2 103/3/2 104/3/2
f 104/3/2 103/3/2 105/3/2
f 106/5/2 107/5/2 109/5/2
f 107/3/2 108/3/2 110/3/2
f 109/5/2 107/5/2 110/5/2
f 110/3/2 108/3/2 111/3/2
f 115/3/2 116/3/2 117/3/2
f 117/3/2 116/3/2 118/3/2
f 112/3/2 113/3/2 119/3/2
f 113/2/2 114/2/2 119/2/2
f 119/2/2 114/2/2 120/2/2
f 112/3/2 119/3/2 125/3/2
f 119/3/2 120/3/2 125/3/2
f 120/3/2 121/3/2 125/3/2
f 125/3/2 121/3/2 126/3/2
f 123/3/2 124/3/2 127/3/2
f 122/3/2 123/3/2 127/3/2
f 127/3/2 124/3/2 128/3/2
f 129/3/2 130/3/2 131/3/2
f 131/3/2 130/3/2 132/3/2
f 133/3/2 134/3/2 135/3/2
f 135/3/2 134/3/2 136/3/2
f 137/4/2 138/4/2 139/4/2
f 139/4/2 138/4/2 140/4/2
f 141/3/2 142/3/2 143/3/2
f 143/3/2 142/3/2 144/3/2
f 148/5/2 149/5/2 151/5/2
f 149/3/2 150/3/2 152/3/2
f 151/5/2 149/5/2 152/5/2
f 148/5/2 151/5/2 153/5/2
f 151/2/2 152/2/2 154/2/2
f 153/5/2 151/5/2 154/5/2
f 152/3/2 150/3/2 155/3/2
f 154/2/2 152/2/2 155/2/2
f 155/3/2 150/3/2 156/3/2
f 145/3/2 146/3/2 157/3/2
f 146/2/2 147/2/2 157/2/2
f 157/2/2 147/2/2 158/2/2
f 145/3/2 157/3/2 163/3/2
f 157/3/2 158/3/2 163/3/2
f 158/3/2 159/3/2 163/3/2
f 163/3/2 159/3/2 164/3/2
f 161/3/2 162/3/2 165/3/2
f 160/3/2 161/3/2 165/3/2
f 165/3/2 162/3/2 166/3/2
f 167/4/2 168/4/2 171/4/2
f 171/4/2 168/4/2 172/4/2
f 169/4/2 170/4/2 173/4/2
f 173/4/2 170/4/2 174/4/2
f 171/4/2 172/4/2 175/4/2
f 172/4/2 173/4/2 175/4/2
f 173/4/2 174/4/2 175/4/2
f 175/4/2 174/4/2 176/4/2
f 177/5/2 178/5/2 179/5/2
f 179/5/2 178/5/2 180/5/2
f 179/3/2 180/3/2 182/3/2
f 180/3/2 181/3/2 182/3/2
f 182/3/2 181/3/2 183/3/2
f 184/2/2 185/2/2 188/2/2
f 188/2/2 185/2/2 189/2/2
f 186/2/2 187/2/2 190/2/2
f 190/2/2 187/2/2 191/2/2
f 192/3/2 193/3/2 198/3/2
f 198/3/2 193/3/2 199/3/2
f 194/3/2 195/3/2 200/3/2
f 200/3/2 195/3/2 201/3/2
f 196/3/2 197/3/2 202/3/2
f 202/3/2 197/3/2 203/3/2
f 206/3/3 205/3/3 204/3/3
f 207/3/3 205/3/3 206/3/3
f 210/3/3 209/3/3 208/3/3
f 211/3/3 209/3/3 210/3/3
f 214/3/3 213/3/3 212/3/3
f 215/3/3 213/3/3 214/3/3
f 218/2/3 217/2/3 216/2/3
f 219/2/3 217/2/3 218/2/3
f 222/2/3 221/2/3 220/2/3
f 223/2/3 221/2/3 222/2/3
f 227/4/3 225/4/3 224/4/3
f 227/4/3 226/4/3 225/4/3
f 228/4/3 226/4/3 227/4/3
f 230/4/3 226/4/3 228/4/3
f 231/4/3 230/4/3 229/4/3
f 232/4/3 226/4/3 230/4/3
f 232/4/3 230/4/3 231/4/3
f 233/4/3 226/4/3 232/4/3
f 236/3/3 235/3/3 234/3/3
f 237/3/3 235/3/3 236/3/3
f 238/3/3 235/3/3 237/3/3
f 239/3/3 235/3/3 238/3/3
f 243/3/3 241/3/3 240/3/3
f 244/3/3 243/3/3 242/3/3
f 245/3/3 241/3/3 243/3/3
f 245/3/3 243/3/3 244/3/3
f 248/4/3 247/4/3 246/4/3
f 249/4/3 247/4/3 248/4/3
f 252/3/3 251/3/3 250/3/3
f 253/3/3 251/3/3 252/3/3
f 254/3/3 251/3/3 253/3/3
f 255/3/3 251/3/3 254/3/3
f 259/3/3 257/3/3 256/3/3
f 260/3/3 259/3/3 258/3/3
f 261/3/3 257/3/3 259/3/3
f 261/3/3 259/3/3 260/3/3
f 262/3/4 263/3/4 264/3/4
f 264/3/4 263/3/4 265/3/4
f 265/3/4 263/3/4 266/3/4
f 266/3/4 263/3/4 267/3/4
f 268/3/4 269/3/4 271/3/4
f 270/3/4 271/3/4 272/3/4
f 271/3/4 269/3/4 273/3/4
f 272/3/4 271/3/4 273/3/4
f 274/4/4 275/4/4 276/4/4
f 276/4/4 275/4/4 277/4/4
f 278/3/4 279/3/4 280/3/4
f 280/3/4 279/3/4 281/3/4
f 281/3/4 279/3/4 282/3/4
f 282/3/4 279/3/4 283/3/4
f 284/3/4 285/3/4 287/3/4
f 286/3/4 287/3/4 288/3/4
f 287/3/4 285/3/4 289/3/4
f 288/3/4 287/3/4 289/3/4
f 290/4/4 291/4/4 293/4/4
f 291/4/4 292/4/4 293/4/4
f 293/4/4 292/4/4 294/4/4
f 294/4/4 292/4/4 296/4/4
f 295/4/4 296/4/4 297/4/4
f 296/4/4 292/4/4 298/4/4
f 297/4/4 296/4/4 298/4/4
f 298/4/4 292/4/4 299/4/4
f 300/5/4 301/5/4 302/5/4
f 302/5/4 301/5/4 303/5/4
f 304/5/4 305/5/4 306/5/4
f 306/5/4 305/5/4 307/5/4
f 308/5/4 309/5/4 311/5/4
f 309/5/4 310/5/4 311/5/4
f 308/5/4 311/5/4 312/5/4
f 312/5/4 311/5/4 313/5/4
f 314/5/4 315/5/4 316/5/4
f 316/5/4 315/5/4 317/5/4
f 314/5/4 316/5/4 318/5/4
f 314/5/4 318/5/4 320/5/4
f 318/5/4 319/5/4 320/5/4
f 320/5/4 319/5/4 321/5/4
f 314/5/4 320/5/4 324/5/4
f 314/5/4 324/5/4 326/5/4
f 324/5/4 325/5/4 326/5/4
f 326/5/4 325/5/4 327/5/4
f 322/5/4 323/5/4 328/5/4
f 328/5/4 323/5/4 329/5/4
f 314/5/4 326/5/4 330/5/4
f 314/5/4 330/5/4 332/5/4
f 330/5/4 331/5/4 332/5/4
f 332/5/4 331/5/4 333/5/4
f 314/5/4 332/5/4 334/5/4
f 334/5/4 332/5/4 335/5/4
f 336/3/4 337/3/4 338/3/4
f 338/3/4 337/3/4 339/3/4
f 339/3/4 337/3/4 340/3/4
f 340/3/4 337/3/4 341/3/4
f 339/3/4 340/3/4 343/3/4
f 342/3/4 343/3/4 344/3/4
f 343/3/4 340/3/4 345/3/4
f 344/3/4 343/3/4 345/3/4
f 341/3/4 337/3/4 346/3/4
f 346/3/4 337/3/4 347/3/4
f 345/3/4 340/3/4 348/3/4
f 341/3/4 346/3/4 349/3/4
f 349/3/4 346/3/4 350/3/4
f 345/3/4 348/3/4 353/3/4
f 350/3/4 351/3/4 353/3/4
f 349/3/4 350/3/4 353/3/4
f 348/3/4 349/3/4 353/3/4
f 353/3/4 351/3/4 354/3/4
f 352/3/4 353/3/4 354/3/4
f 354/3/4 351/3/4 355/3/4
f 352/3/4 354/3/4 356/3/4
f 356/3/4 354/3/4 357/3/4
f 357/3/4 354/3/4 359/3/4
f 359/3/4 354/3/4 360/3/4
f 358/3/4 359/3/4 360/3/4
f 355/3/4 351/3/4 361/3/4
f 358/3/4 360/3/4 362/3/4
f 360/3/4 361/3/4 362/3/4
f 362/3/4 361/3/4 363/3/4
f 361/3/4 351/3/4 364/3/4
f 363/3/4 361/3/4 364/3/4
f 364/3/4 351/3/4 365/3/4
f 365/3/4 351/3/4 366/3/4
f 366/3/4 351/3/4 367/3/4
f 363/3/4 364/3/4 369/3/4
f 365/3/4 366/3/4 370/3/4
f 368/3/4 369/3/4 372/3/4
f 369/3/4 364/3/4 373/3/4
f 372/3/4 369/3/4 373/3/4
f 373/3/4 364/3/4 374/3/4
f 370/3/4 371/3/4 375/3/4
f 365/3/4 370/3/4 375/3/4
f 336/3/4 338/3/4 376/3/4
f 374/3/4 375/3/4 377/3/4
f 373/3/4 374/3/4 377/3/4
f 336/3/4 376/3/4 378/3/4
f 376/3/4 377/3/4 378/3/4
f 377/3/4 375/3/4 379/3/4
f 378/3/4 377/3/4 379/3/4
f 375/3/4 371/3/4 379/3/4
f 386/3/5 381/3/5 380/3/5
f 387/3/5 381/3/5 386/3/5
f 388/3/5 383/3/5 382/3/5
f 389/3/5 383/3/5 388/3/5
f 390/3/5 383/3/5 389/3/5
f 391/3/5 383/3/5 390/3/5
f 392/3/5 385/3/5 384/3/5
f 393/3/5 385/3/5 392/3/5
f 394/2/5 387/2/5 386/2/5
f 394/3/5 386/3/5 380/3/5
f 395/2/5 387/2/5 394/2/5
f 396/2/5 389/2/5 388/2/5
f 397/3/5 390/3/5 389/3/5
f 397/2/5 389/2/5 396/2/5
f 398/2/5 391/2/5 390/2/5
f 398/3/5 390/3/5 397/3/5
f 399/2/5 391/2/5 398/2/5
f 400/2/5 393/2/5 392/2/5
f 401/3/5 385/3/5 393/3/5
f 401/2/5 393/2/5 400/2/5
f 402/3/5 395/3/5 394/3/5
f 402/2/5 396/2/5 395/2/5
f 403/3/5 397/3/5 396/3/5
f 403/2/5 396/2/5 402/2/5
f 403/3/5 399/3/5 398/3/5
f 403/3/5 398/3/5 397/3/5
f 404/2/5 400/2/5 399/2/5
f 404/3/5 399/3/5 403/3/5
f 405/3/5 401/3/5 400/3/5
f 405/2/5 400/2/5 404/2/5
f 406/3/5 402/3/5 394/3/5
f 406/3/5 403/3/5 402/3/5
f 406/3/5 405/3/5 404/3/5
f 406/3/5 404/3/5 403/3/5
f 406/3/5 394/3/5 380/3/5
f 407/3/5 405/3/5 406/3/5
f 408/3/5 405/3/5 407/3/5
f 409/3/5 401/3/5 405/3/5
f 409/3/5 405/3/5 408/3/5
f 409/3/5 385/3/5 401/3/5
f 410/3/5 385/3/5 409/3/5
f 411/3/5 385/3/5 410/3/5
f 413/2/5 408/2/5 407/2/5
f 414/3/5 409/3/5 408/3/5
f 414/2/5 408/2/5 413/2/5
f 415/2/5 410/2/5 409/2/5
f 415/3/5 409/3/5 414/3/5
f 416/2/5 410/2/5 415/2/5
f 418/3/5 414/3/5 413/3/5
f 418/3/5 417/3/5 416/3/5
f 418/3/5 416/3/5 415/3/5
f 418/3/5 415/3/5 414/3/5
f 418/3/5 413/3/5 412/3/5
f 419/3/5 417/3/5 418/3/5
f 420/3/5 417/3/5 419/3/5
f 421/3/5 417/3/5 420/3/5
f 422/3/5 417/3/5 421/3/5
f 423/3/5 417/3/5 422/3/5
f 425/2/5 420/2/5 419/2/5
f 426/3/5 421/3/5 420/3/5
f 426/2/5 420/2/5 425/2/5
f 427/2/5 422/2/5 421/2/5
f 427/3/5 421/3/5 426/3/5
f 428/2/5 422/2/5 427/2/5
f 430/3/5 426/3/5 425/3/5
f 430/3/5 429/3/5 428/3/5
f 430/3/5 428/3/5 427/3/5
f 430/3/5 427/3/5 426/3/5
f 430/3/5 425/3/5 424/3/5
f 431/3/5 429/3/5 430/3/5
f 432/3/5 429/3/5 431/3/5
f 433/3/5 429/3/5 432/3/5
f 434/3/5 430/3/5 424/3/5
f 435/2/5 431/2/5 430/2/5
f 435/3/5 430/3/5 434/3/5
f 436/3/5 432/3/5 431/3/5
f 436/2/5 431/2/5 435/2/5
f 437/3/5 432/3/5 436/3/5
f 438/3/5 432/3/5 437/3/5
f 439/2/5 433/2/5 432/2/5
f 439/3/5 432/3/5 438/3/5
f 440/3/5 429/3/5 433/3/5
f 440/2/5 433/2/5 439/2/5
f 441/3/5 429/3/5 440/3/5
f 442/3/5 434/3/5 424/3/5
f 442/2/5 435/2/5 434/2/5
f 443/3/5 436/3/5 435/3/5
f 443/2/5 435/2/5 442/2/5
f 444/2/5 437/2/5 436/2/5
f 444/3/5 436/3/5 443/3/5
f 445/3/5 438/3/5 437/3/5
f 445/2/5 437/2/5 444/2/5
f 446/2/5 439/2/5 438/2/5
f 446/3/5 438/3/5 445/3/5
f 447/3/5 440/3/5 439/3/5
f 447/2/5 439/2/5 446/2/5
f 448/2/5 441/2/5 440/2/5
f 448/3/5 440/3/5 447/3/5
f 449/3/5 429/3/5 441/3/5
f 449/2/5 441/2/5 448/2/5
f 450/3/5 445/3/5 444/3/5
f 450/3/5 448/3/5 447/3/5
f 450/3/5 449/3/5 448/3/5
f 450/3/5 446/3/5 445/3/5
f 450/3/5 443/3/5 442/3/5
f 450/3/5 442/3/5 424/3/5
f 450/3/5 444/3/5 443/3/5
f 450/3/5 447/3/5 446/3/5
f 451/3/5 429/3/5 449/3/5
f 451/3/5 449/3/5 450/3/5
f 460/3/5 453/3/5 452/3/5
f 461/3/5 453/3/5 460/3/5
f 462/3/5 455/3/5 454/3/5
f 463/3/5 455/3/5 462/3/5
f 464/3/5 457/3/5 456/3/5
f 465/3/5 457/3/5 464/3/5
f 466/3/5 459/3/5 458/3/5
f 467/3/5 459/3/5 466/3/5
f 479/3/5 469/3/5 468/3/5
f 479/5/5 470/5/5 469/5/5
f 480/5/5 470/5/5 479/5/5
f 481/3/5 472/3/5 471/3/5
f 482/3/5 472/3/5 481/3/5
f 483/3/5 474/3/5 473/3/5
f 484/3/5 474/3/5 483/3/5
f 485/3/5 476/3/5 475/3/5
f 486/3/5 476/3/5 485/3/5
f 487/3/5 478/3/5 477/3/5
f 488/3/5 478/3/5 487/3/5
f 489/3/5 479/3/5 468/3/5
f 489/3/5 480/3/5 479/3/5
f 490/3/5 480/3/5 489/3/5
f 493/3/5 492/3/5 491/3/5
f 494/3/5 492/3/5 493/3/5
f 499/5/5 496/5/5 495/5/5
f 500/5/5 496/5/5 499/5/5
f 501/5/5 498/5/5 497/5/5
f 502/5/5 498/5/5 501/5/5
f 503/5/5 499/5/5 495/5/5
f 504/2/5 500/2/5 499/2/5
f 504/5/5 499/5/5 503/5/5
f 505/2/5 500/2/5 504/2/5
f 506/2/5 502/2/5 501/2/5
f 507/5/5 498/5/5 502/5/5
f 507/2/5 502/2/5 506/2/5
f 508/5/5 498/5/5 507/5/5
f 509/3/5 505/3/5 504/3/5
f 509/3/5 504/3/5 503/3/5
f 510/3/5 505/3/5 509/3/5
f 511/3/5 508/3/5 507/3/5
f 511/3/5 507/3/5 506/3/5
f 512/3/5 508/3/5 511/3/5
f 513/5/6 514/5/6 516/5/6
f 516/5/6 514/5/6 517/5/6
f 515/3/6 516/3/6 518/3/6
f 516/3/6 517/3/6 518/3/6
f 518/3/6 517/3/6 519/3/6
f 520/3/6 521/3/6 522/3/6
f 522/3/6 521/3/6 523/3/6
f 524/5/6 525/5/6 528/5/6
f 528/5/6 525/5/6 529/5/6
f 526/5/6 527/5/6 530/5/6
f 530/5/6 527/5/6 531/5/6
f 528/3/6 529/3/6 532/3/6
f 532/3/6 529/3/6 533/3/6
f 530/3/6 531/3/6 534/3/6
f 534/3/6 531/3/6 535/3/6
f 536/2/6 537/2/6 541/2/6
f 541/2/6 537/2/6 542/2/6
f 538/2/6 539/2/6 543/2/6
f 543/2/6 539/2/6 544/2/6
f 540/2/6 541/2/6 546/2/6
f 546/2/6 541/2/6 547/2/6
f 544/2/6 545/2/6 548/2/6
f 548/2/6 545/2/6 549/2/6
f 550/2/6 551/2/6 554/2/6
f 554/2/6 551/2/6 555/2/6
f 552/2/6 553/2/6 558/2/6
f 558/2/6 553/2/6 559/2/6
f 555/2/6 556/2/6 560/2/6
f 560/2/6 556/2/6 561/2/6
f 557/2/6 558/2/6 562/2/6
f 562/2/6 558/2/6 563/2/6
f 560/3/6 561/3/6 564/3/6
f 564/3/6 561/3/6 565/3/6
f 562/3/6 563/3/6 566/3/6
f 566/3/6 563/3/6 567/3/6
f 568/3/6 569/3/6 574/3/6
f 574/3/6 569/3/6 575/3/6
f 570/3/6 571/3/6 576/3/6
f 576/3/6 571/3/6 577/3/6
f 572/3/6 573/3/6 578/3/6
f 578/3/6 573/3/6 579/3/6
f 580/3/6 581/3/6 584/3/6
f 584/3/6 581/3/6 585/3/6
f 582/3/6 583/3/6 586/3/6
f 586/3/6 583/3/6 587/3/6
f 588/3/6 589/3/6 594/3/6
f 594/3/6 589/3/6 595/3/6
f 590/3/6 591/3/6 596/3/6
f 596/3/6 591/3/6 597/3/6
f 592/3/6 593/3/6 598/3/6
f 598/3/6 593/3/6 599/3/6
f 600/4/6 601/4/6 602/4/6
f 602/4/6 601/4/6 603/4/6
f 600/4/6 602/4/6 604/4/6
f 603/4/6 601/4/6 605/4/6
f 600/4/6 604/4/6 606/4/6
f 604/4/6 605/4/6 606/4/6
f 605/4/6 601/4/6 607/4/6
f 606/4/6 605/4/6 607/4/6
f 608/4/6 609/4/6 610/4/6
f 610/4/6 609/4/6 611/4/6
