# MagicaVoxel @ ephtracy

# material
mtllib skeleton1.mtl
usemtl palette

# normals
vn -1 0 0
vn 1 0 0
vn 0 0 1
vn 0 0 -1
vn 0 -1 0
vn 0 1 0

# texcoords
vt 0.142578 0.5
vt 0.306641 0.5
vt 0.869141 0.5

# verts
v -15.5 25 16.5
v -15.5 25 -16.5
v -15.5 38 16.5
v -15.5 38 -16.5
v -13.5 14 20.5
v -13.5 14 -20.5
v -13.5 25 20.5
v -13.5 25 16.5
v -13.5 25 15.5
v -13.5 25 12.5
v -13.5 25 -12.5
v -13.5 25 -15.5
v -13.5 25 -16.5
v -13.5 25 -20.5
v -13.5 38 12.5
v -13.5 38 -12.5
v -13.5 43 12.5
v -13.5 43 -12.5
v -8.5 2 10.5
v -8.5 2 -10.5
v -8.5 14 10.5
v -8.5 14 -10.5
v 7.5 23 12.5
v 7.5 23 2.5
v 7.5 23 -2.5
v 7.5 23 -11.5
v 7.5 23 -12.5
v 7.5 32 12.5
v 7.5 32 2.5
v 7.5 32 -2.5
v 7.5 32 -12.5
v 10.5 2 7.5
v 10.5 2 5.5
v 10.5 2 3.5
v 10.5 2 1.5
v 10.5 2 -1.5
v 10.5 2 -3.5
v 10.5 2 -5.5
v 10.5 2 -7.5
v 10.5 10 7.5
v 10.5 10 5.5
v 10.5 10 3.5
v 10.5 10 1.5
v 10.5 10 -1.5
v 10.5 10 -3.5
v 10.5 10 -5.5
v 10.5 10 -7.5
v 11.5 15 1.5
v 11.5 15 -1.5
v 11.5 19 1.5
v 11.5 19 -1.5
v 13.5 2 10.5
v 13.5 2 7.5
v 13.5 2 5.5
v 13.5 2 3.5
v 13.5 2 1.5
v 13.5 2 -1.5
v 13.5 2 -3.5
v 13.5 2 -5.5
v 13.5 2 -7.5
v 13.5 2 -10.5
v 13.5 10 7.5
v 13.5 10 5.5
v 13.5 10 3.5
v 13.5 10 1.5
v 13.5 10 -1.5
v 13.5 10 -3.5
v 13.5 10 -5.5
v 13.5 10 -7.5
v 13.5 14 20.5
v 13.5 14 11.5
v 13.5 14 10.5
v 13.5 14 -10.5
v 13.5 14 -20.5
v 13.5 15 13.5
v 13.5 15 11.5
v 13.5 15 10.5
v 13.5 15 9.5
v 13.5 15 1.5
v 13.5 15 -1.5
v 13.5 16 13.5
v 13.5 16 9.5
v 13.5 19 1.5
v 13.5 19 -1.5
v 13.5 20 -11.5
v 13.5 20 -12.5
v 13.5 21 -9.5
v 13.5 21 -10.5
v 13.5 22 -10.5
v 13.5 22 -11.5
v 13.5 23 12.5
v 13.5 23 2.5
v 13.5 23 -2.5
v 13.5 23 -9.5
v 13.5 23 -12.5
v 13.5 25 20.5
v 13.5 25 16.5
v 13.5 25 -16.5
v 13.5 25 -20.5
v 13.5 32 12.5
v 13.5 32 2.5
v 13.5 32 -2.5
v 13.5 32 -12.5
v 13.5 38 16.5
v 13.5 38 12.5
v 13.5 38 4.5
v 13.5 38 3.5
v 13.5 38 -12.5
v 13.5 38 -16.5
v 13.5 40 7.5
v 13.5 40 6.5
v 13.5 42 10.5
v 13.5 42 7.5
v 13.5 42 6.5
v 13.5 42 4.5
v 13.5 43 12.5
v 13.5 43 10.5
v 13.5 43 3.5
v 13.5 43 -12.5
v -13.5 14 20.5
v -13.5 25 20.5
v 13.5 14 20.5
v 13.5 25 20.5
v -15.5 25 16.5
v -15.5 38 16.5
v -13.5 25 16.5
v 13.5 25 16.5
v 13.5 38 16.5
v -13.5 38 12.5
v -13.5 43 12.5
v 13.5 38 12.5
v 13.5 43 12.5
v -8.5 2 10.5
v -8.5 14 10.5
v 12.5 14 10.5
v 13.5 2 10.5
v 13.5 14 10.5
v 10.5 2 5.5
v 10.5 10 5.5
v 13.5 2 5.5
v 13.5 10 5.5
v 7.5 23 2.5
v 7.5 32 2.5
v 13.5 23 2.5
v 13.5 32 2.5
v 10.5 2 1.5
v 10.5 10 1.5
v 13.5 2 1.5
v 13.5 10 1.5
v 11.5 15 -1.5
v 11.5 19 -1.5
v 13.5 15 -1.5
v 13.5 19 -1.5
v 10.5 2 -3.5
v 10.5 10 -3.5
v 13.5 2 -3.5
v 13.5 10 -3.5
v 10.5 2 -7.5
v 10.5 10 -7.5
v 13.5 2 -7.5
v 13.5 10 -7.5
v 7.5 23 -12.5
v 7.5 32 -12.5
v 13.5 23 -12.5
v 13.5 32 -12.5
v 7.5 23 12.5
v 7.5 32 12.5
v 13.5 23 12.5
v 13.5 32 12.5
v 10.5 2 7.5
v 10.5 10 7.5
v 13.5 2 7.5
v 13.5 10 7.5
v 10.5 2 3.5
v 10.5 10 3.5
v 13.5 2 3.5
v 13.5 10 3.5
v 11.5 15 1.5
v 11.5 19 1.5
v 13.5 15 1.5
v 13.5 19 1.5
v 10.5 2 -1.5
v 10.5 10 -1.5
v 13.5 2 -1.5
v 13.5 10 -1.5
v 7.5 23 -2.5
v 7.5 32 -2.5
v 13.5 23 -2.5
v 13.5 32 -2.5
v 10.5 2 -5.5
v 10.5 10 -5.5
v 13.5 2 -5.5
v 13.5 10 -5.5
v -8.5 2 -10.5
v -8.5 14 -10.5
v 13.5 2 -10.5
v 13.5 14 -10.5
v -13.5 38 -12.5
v -13.5 43 -12.5
v 13.5 38 -12.5
v 13.5 43 -12.5
v -15.5 25 -16.5
v -15.5 38 -16.5
v -13.5 25 -16.5
v 13.5 25 -16.5
v 13.5 38 -16.5
v -13.5 14 -20.5
v -13.5 25 -20.5
v 13.5 14 -20.5
v 13.5 25 -20.5
v -8.5 2 10.5
v 13.5 2 10.5
v 8.5 2 7.5
v 10.5 2 7.5
v 13.5 2 7.5
v 8.5 2 5.5
v 10.5 2 5.5
v 13.5 2 5.5
v 8.5 2 3.5
v 10.5 2 3.5
v 13.5 2 3.5
v 8.5 2 1.5
v 10.5 2 1.5
v 13.5 2 1.5
v 8.5 2 -1.5
v 10.5 2 -1.5
v 13.5 2 -1.5
v 8.5 2 -3.5
v 10.5 2 -3.5
v 13.5 2 -3.5
v 8.5 2 -5.5
v 10.5 2 -5.5
v 13.5 2 -5.5
v 8.5 2 -7.5
v 10.5 2 -7.5
v 13.5 2 -7.5
v -8.5 2 -10.5
v 13.5 2 -10.5
v 10.5 10 7.5
v 13.5 10 7.5
v 10.5 10 5.5
v 13.5 10 5.5
v 10.5 10 3.5
v 13.5 10 3.5
v 10.5 10 1.5
v 13.5 10 1.5
v 10.5 10 -1.5
v 13.5 10 -1.5
v 10.5 10 -3.5
v 13.5 10 -3.5
v 10.5 10 -5.5
v 13.5 10 -5.5
v 10.5 10 -7.5
v 13.5 10 -7.5
v -13.5 14 20.5
v 13.5 14 20.5
v 12.5 14 11.5
v 13.5 14 11.5
v -8.5 14 10.5
v 12.5 14 10.5
v 13.5 14 10.5
v -8.5 14 -10.5
v 13.5 14 -10.5
v -13.5 14 -20.5
v 13.5 14 -20.5
v 11.5 19 1.5
v 13.5 19 1.5
v 11.5 19 -1.5
v 13.5 19 -1.5
v -15.5 25 16.5
v -13.5 25 16.5
v -14.5 25 15.5
v -13.5 25 15.5
v -14.5 25 12.5
v -13.5 25 12.5
v -14.5 25 -12.5
v -13.5 25 -12.5
v -14.5 25 -15.5
v -13.5 25 -15.5
v -15.5 25 -16.5
v -13.5 25 -16.5
v 7.5 32 12.5
v 13.5 32 12.5
v 7.5 32 2.5
v 13.5 32 2.5
v 7.5 32 -2.5
v 13.5 32 -2.5
v 7.5 32 -12.5
v 13.5 32 -12.5
v 11.5 15 1.5
v 13.5 15 1.5
v 11.5 15 -1.5
v 13.5 15 -1.5
v 7.5 23 12.5
v 13.5 23 12.5
v 7.5 23 2.5
v 13.5 23 2.5
v 7.5 23 -2.5
v 13.5 23 -2.5
v 12.5 23 -9.5
v 13.5 23 -9.5
v 7.5 23 -11.5
v 12.5 23 -11.5
v 7.5 23 -12.5
v 13.5 23 -12.5
v -13.5 25 20.5
v 13.5 25 20.5
v -13.5 25 16.5
v 13.5 25 16.5
v -13.5 25 -16.5
v 13.5 25 -16.5
v -13.5 25 -20.5
v 13.5 25 -20.5
v -15.5 38 16.5
v 13.5 38 16.5
v -13.5 38 12.5
v 13.5 38 12.5
v -13.5 38 -12.5
v 13.5 38 -12.5
v -15.5 38 -16.5
v 13.5 38 -16.5
v -13.5 43 12.5
v 13.5 43 12.5
v 12.5 43 10.5
v 13.5 43 10.5
v 12.5 43 3.5
v 13.5 43 3.5
v -13.5 43 -12.5
v 13.5 43 -12.5

# faces
f 3/1/1 2/1/1 1/1/1
f 4/1/1 2/1/1 3/1/1
f 7/1/1 6/1/1 5/1/1
f 8/1/1 6/1/1 7/1/1
f 9/1/1 6/1/1 8/1/1
f 10/1/1 6/1/1 9/1/1
f 11/1/1 6/1/1 10/1/1
f 12/1/1 6/1/1 11/1/1
f 13/1/1 6/1/1 12/1/1
f 14/1/1 6/1/1 13/1/1
f 17/1/1 16/1/1 15/1/1
f 18/1/1 16/1/1 17/1/1
f 21/1/1 20/1/1 19/1/1
f 22/1/1 20/1/1 21/1/1
f 23/3/2 24/3/2 28/3/2
f 28/3/2 24/3/2 29/3/2
f 26/3/2 27/3/2 30/3/2
f 25/3/2 26/3/2 30/3/2
f 30/3/2 27/3/2 31/3/2
f 32/3/2 33/3/2 40/3/2
f 40/3/2 33/3/2 41/3/2
f 34/3/2 35/3/2 42/3/2
f 42/3/2 35/3/2 43/3/2
f 36/3/2 37/3/2 44/3/2
f 44/3/2 37/3/2 45/3/2
f 38/3/2 39/3/2 46/3/2
f 46/3/2 39/3/2 47/3/2
f 48/3/2 49/3/2 50/3/2
f 50/3/2 49/3/2 51/3/2
f 52/1/2 53/1/2 62/1/2
f 54/1/2 55/1/2 63/1/2
f 63/1/2 55/1/2 64/1/2
f 56/1/2 57/1/2 65/1/2
f 65/1/2 57/1/2 66/1/2
f 58/1/2 59/1/2 67/1/2
f 67/1/2 59/1/2 68/1/2
f 60/1/2 61/1/2 69/1/2
f 67/1/2 68/1/2 72/1/2
f 52/1/2 62/1/2 72/1/2
f 68/1/2 69/1/2 72/1/2
f 63/1/2 64/1/2 72/1/2
f 65/1/2 66/1/2 72/1/2
f 66/1/2 67/1/2 72/1/2
f 62/1/2 63/1/2 72/1/2
f 64/1/2 65/1/2 72/1/2
f 69/1/2 61/1/2 73/1/2
f 72/1/2 69/1/2 73/1/2
f 70/1/2 71/1/2 75/1/2
f 71/3/2 72/3/2 76/3/2
f 75/1/2 71/1/2 76/1/2
f 73/1/2 74/1/2 77/1/2
f 76/3/2 72/3/2 77/3/2
f 72/1/2 73/1/2 77/1/2
f 77/1/2 74/1/2 78/1/2
f 78/1/2 74/1/2 79/1/2
f 79/1/2 74/1/2 80/1/2
f 75/3/2 76/3/2 81/3/2
f 70/1/2 75/1/2 81/1/2
f 76/3/2 77/3/2 81/3/2
f 77/3/2 78/3/2 81/3/2
f 78/1/2 79/1/2 82/1/2
f 81/3/2 78/3/2 82/3/2
f 81/1/2 82/1/2 83/1/2
f 82/1/2 79/1/2 83/1/2
f 80/1/2 74/1/2 84/1/2
f 84/1/2 74/1/2 85/1/2
f 83/1/2 84/1/2 85/1/2
f 85/1/2 74/1/2 86/1/2
f 83/1/2 85/1/2 87/1/2
f 87/1/2 85/1/2 88/1/2
f 87/3/2 88/3/2 89/3/2
f 88/1/2 85/1/2 89/1/2
f 85/3/2 86/3/2 90/3/2
f 89/1/2 85/1/2 90/1/2
f 81/1/2 83/1/2 91/1/2
f 83/1/2 87/1/2 91/1/2
f 91/1/2 87/1/2 92/1/2
f 92/1/2 87/1/2 93/1/2
f 87/3/2 89/3/2 94/3/2
f 93/1/2 87/1/2 94/1/2
f 89/3/2 90/3/2 94/3/2
f 90/3/2 86/3/2 95/3/2
f 94/3/2 90/3/2 95/3/2
f 86/1/2 74/1/2 95/1/2
f 70/1/2 81/1/2 96/1/2
f 81/1/2 91/1/2 96/1/2
f 96/1/2 91/1/2 97/1/2
f 95/1/2 74/1/2 98/1/2
f 98/1/2 74/1/2 99/1/2
f 97/1/2 91/1/2 100/1/2
f 92/1/2 93/1/2 101/1/2
f 101/1/2 93/1/2 102/1/2
f 95/1/2 98/1/2 103/1/2
f 97/1/2 100/1/2 104/1/2
f 102/1/2 103/1/2 104/1/2
f 101/1/2 102/1/2 104/1/2
f 100/1/2 101/1/2 104/1/2
f 104/1/2 103/1/2 105/1/2
f 105/1/2 103/1/2 106/1/2
f 106/1/2 103/1/2 107/1/2
f 103/1/2 98/1/2 108/1/2
f 107/1/2 103/1/2 108/1/2
f 108/1/2 98/1/2 109/1/2
f 105/1/2 106/1/2 110/1/2
f 110/1/2 106/1/2 111/1/2
f 105/1/2 110/1/2 112/1/2
f 110/3/2 111/3/2 113/3/2
f 112/1/2 110/1/2 113/1/2
f 111/1/2 106/1/2 114/1/2
f 113/3/2 111/3/2 114/3/2
f 106/3/2 107/3/2 115/3/2
f 114/1/2 106/1/2 115/1/2
f 105/1/2 112/1/2 116/1/2
f 113/3/2 114/3/2 117/3/2
f 116/1/2 112/1/2 117/1/2
f 112/3/2 113/3/2 117/3/2
f 114/3/2 115/3/2 117/3/2
f 107/1/2 108/1/2 118/1/2
f 117/3/2 115/3/2 118/3/2
f 115/3/2 107/3/2 118/3/2
f 118/1/2 108/1/2 119/1/2
f 122/1/3 121/1/3 120/1/3
f 123/1/3 121/1/3 122/1/3
f 126/1/3 125/1/3 124/1/3
f 127/1/3 125/1/3 126/1/3
f 128/1/3 125/1/3 127/1/3
f 131/1/3 130/1/3 129/1/3
f 132/1/3 130/1/3 131/1/3
f 135/1/3 134/1/3 133/1/3
f 136/1/3 135/1/3 133/1/3
f 137/1/3 135/1/3 136/1/3
f 140/1/3 139/1/3 138/1/3
f 141/1/3 139/1/3 140/1/3
f 144/1/3 143/1/3 142/1/3
f 145/1/3 143/1/3 144/1/3
f 148/1/3 147/1/3 146/1/3
f 149/1/3 147/1/3 148/1/3
f 152/1/3 151/1/3 150/1/3
f 153/1/3 151/1/3 152/1/3
f 156/1/3 155/1/3 154/1/3
f 157/1/3 155/1/3 156/1/3
f 160/1/3 159/1/3 158/1/3
f 161/1/3 159/1/3 160/1/3
f 164/1/3 163/1/3 162/1/3
f 165/1/3 163/1/3 164/1/3
f 166/1/4 167/1/4 168/1/4
f 168/1/4 167/1/4 169/1/4
f 170/1/4 171/1/4 172/1/4
f 172/1/4 171/1/4 173/1/4
f 174/1/4 175/1/4 176/1/4
f 176/1/4 175/1/4 177/1/4
f 178/1/4 179/1/4 180/1/4
f 180/1/4 179/1/4 181/1/4
f 182/1/4 183/1/4 184/1/4
f 184/1/4 183/1/4 185/1/4
f 186/1/4 187/1/4 188/1/4
f 188/1/4 187/1/4 189/1/4
f 190/1/4 191/1/4 192/1/4
f 192/1/4 191/1/4 193/1/4
f 194/1/4 195/1/4 196/1/4
f 196/1/4 195/1/4 197/1/4
f 198/1/4 199/1/4 200/1/4
f 200/1/4 199/1/4 201/1/4
f 202/1/4 203/1/4 204/1/4
f 204/1/4 203/1/4 205/1/4
f 205/1/4 203/1/4 206/1/4
f 207/1/4 208/1/4 209/1/4
f 209/1/4 208/1/4 210/1/4
f 213/1/5 212/1/5 211/1/5
f 214/1/5 212/1/5 213/1/5
f 215/1/5 212/1/5 214/1/5
f 216/1/5 213/1/5 211/1/5
f 216/3/5 214/3/5 213/3/5
f 217/3/5 214/3/5 216/3/5
f 219/1/5 216/1/5 211/1/5
f 219/1/5 218/1/5 217/1/5
f 219/1/5 217/1/5 216/1/5
f 220/1/5 218/1/5 219/1/5
f 221/1/5 218/1/5 220/1/5
f 222/1/5 219/1/5 211/1/5
f 222/3/5 220/3/5 219/3/5
f 223/3/5 220/3/5 222/3/5
f 225/1/5 222/1/5 211/1/5
f 225/1/5 224/1/5 223/1/5
f 225/1/5 223/1/5 222/1/5
f 226/1/5 224/1/5 225/1/5
f 227/1/5 224/1/5 226/1/5
f 228/1/5 225/1/5 211/1/5
f 228/3/5 226/3/5 225/3/5
f 229/3/5 226/3/5 228/3/5
f 231/1/5 228/1/5 211/1/5
f 231/1/5 230/1/5 229/1/5
f 231/1/5 229/1/5 228/1/5
f 232/1/5 230/1/5 231/1/5
f 233/1/5 230/1/5 232/1/5
f 234/1/5 231/1/5 211/1/5
f 234/3/5 232/3/5 231/3/5
f 235/3/5 232/3/5 234/3/5
f 237/1/5 234/1/5 211/1/5
f 237/1/5 236/1/5 235/1/5
f 237/1/5 235/1/5 234/1/5
f 238/1/5 236/1/5 237/1/5
f 241/1/5 240/1/5 239/1/5
f 242/1/5 240/1/5 241/1/5
f 245/1/5 244/1/5 243/1/5
f 246/1/5 244/1/5 245/1/5
f 249/1/5 248/1/5 247/1/5
f 250/1/5 248/1/5 249/1/5
f 253/1/5 252/1/5 251/1/5
f 254/1/5 252/1/5 253/1/5
f 257/1/5 256/1/5 255/1/5
f 258/1/5 256/1/5 257/1/5
f 259/1/5 257/1/5 255/1/5
f 260/3/5 258/3/5 257/3/5
f 260/1/5 257/1/5 259/1/5
f 261/3/5 258/3/5 260/3/5
f 262/1/5 259/1/5 255/1/5
f 264/1/5 262/1/5 255/1/5
f 264/1/5 263/1/5 262/1/5
f 265/1/5 263/1/5 264/1/5
f 268/1/5 267/1/5 266/1/5
f 269/1/5 267/1/5 268/1/5
f 272/1/5 271/1/5 270/1/5
f 273/1/5 271/1/5 272/1/5
f 274/1/5 272/1/5 270/1/5
f 274/2/5 273/2/5 272/2/5
f 275/2/5 273/2/5 274/2/5
f 276/1/5 274/1/5 270/1/5
f 276/1/5 275/1/5 274/1/5
f 277/1/5 275/1/5 276/1/5
f 278/1/5 276/1/5 270/1/5
f 278/2/5 277/2/5 276/2/5
f 279/2/5 277/2/5 278/2/5
f 280/1/5 278/1/5 270/1/5
f 280/1/5 279/1/5 278/1/5
f 281/1/5 279/1/5 280/1/5
f 284/1/5 283/1/5 282/1/5
f 285/1/5 283/1/5 284/1/5
f 288/1/5 287/1/5 286/1/5
f 289/1/5 287/1/5 288/1/5
f 290/1/6 291/1/6 292/1/6
f 292/1/6 291/1/6 293/1/6
f 294/1/6 295/1/6 296/1/6
f 296/1/6 295/1/6 297/1/6
f 298/1/6 299/1/6 300/1/6
f 300/1/6 299/1/6 301/1/6
f 298/1/6 300/1/6 302/1/6
f 300/3/6 301/3/6 303/3/6
f 302/1/6 300/1/6 303/1/6
f 302/3/6 303/3/6 304/3/6
f 303/3/6 301/3/6 305/3/6
f 304/3/6 303/3/6 305/3/6
f 306/1/6 307/1/6 308/1/6
f 308/1/6 307/1/6 309/1/6
f 310/1/6 311/1/6 312/1/6
f 312/1/6 311/1/6 313/1/6
f 314/1/6 315/1/6 316/1/6
f 316/1/6 315/1/6 317/1/6
f 314/1/6 316/1/6 318/1/6
f 314/1/6 318/1/6 320/1/6
f 318/1/6 319/1/6 320/1/6
f 320/1/6 319/1/6 321/1/6
f 322/1/6 323/1/6 324/1/6
f 324/1/6 323/1/6 325/1/6
f 322/1/6 324/1/6 326/1/6
f 324/3/6 325/3/6 326/3/6
f 326/3/6 325/3/6 327/3/6
f 322/1/6 326/1/6 328/1/6
f 326/1/6 327/1/6 328/1/6
f 328/1/6 327/1/6 329/1/6
