# MagicaVoxel @ ephtracy

# material
mtllib snake.mtl
usemtl palette

# normals
vn -1 0 0
vn 1 0 0
vn 0 0 1
vn 0 0 -1
vn 0 -1 0
vn 0 1 0

# texcoords
vt 0.341797 0.5
vt 0.841797 0.5
vt 0.873047 0.5
vt 0.904297 0.5

# verts
v -23 0 20
v -23 0 -10
v -23 10 20
v -23 10 -10
v 5 0 11
v 5 0 -7
v 5 10 11
v 5 10 4
v 5 42 4
v 5 42 -7
v 7 42 2
v 7 42 1
v 7 42 -1
v 7 42 -2
v 7 42 -4
v 7 42 -5
v 7 43 2
v 7 43 1
v 7 43 -1
v 7 43 -2
v 7 43 -4
v 7 43 -5
v 18 34 4
v 18 34 3
v 18 34 -6
v 18 34 -7
v 18 38 4
v 18 38 3
v 18 39 -6
v 18 39 -7
v -14 0 11
v -14 0 -10
v -14 1 11
v -14 1 -9
v -14 8 -9
v -14 8 -10
v -14 10 11
v -14 10 -10
v 8 42 2
v 8 42 1
v 8 42 -1
v 8 42 -2
v 8 42 -4
v 8 42 -5
v 8 43 2
v 8 43 1
v 8 43 -1
v 8 43 -2
v 8 43 -4
v 8 43 -5
v 15 34 4
v 15 34 3
v 15 34 -6
v 15 34 -7
v 15 37 3
v 15 37 -6
v 15 38 4
v 15 38 3
v 15 39 -6
v 15 39 -7
v 16 0 20
v 16 0 -7
v 16 1 4
v 16 1 -7
v 16 10 20
v 16 10 4
v 16 31 4
v 16 31 -7
v 22 33 -0
v 22 33 -1
v 22 33 -2
v 22 33 -3
v 22 34 -0
v 22 34 -1
v 22 34 -2
v 22 34 -3
v 23 31 4
v 23 31 -7
v 23 32 4
v 23 32 -7
v 23 33 -0
v 23 33 -1
v 23 33 -2
v 23 33 -3
v 23 34 -0
v 23 34 -1
v 23 34 -2
v 23 34 -3
v 23 40 -1
v 23 40 -2
v 23 42 4
v 23 42 -1
v 23 42 -2
v 23 42 -7
v 24 33 -1
v 24 33 -2
v 24 34 -1
v 24 34 -2
v -23 0 20
v -23 10 20
v 16 0 20
v 16 10 20
v 5 10 4
v 5 42 4
v 15 10 4
v 15 32 4
v 15 34 4
v 15 38 4
v 16 10 4
v 16 31 4
v 18 34 4
v 18 38 4
v 23 31 4
v 23 32 4
v 23 42 4
v 15 34 3
v 15 37 3
v 15 38 3
v 17 34 3
v 17 37 3
v 18 34 3
v 18 38 3
v 7 42 2
v 7 43 2
v 8 42 2
v 8 43 2
v 7 42 -1
v 7 43 -1
v 8 42 -1
v 8 43 -1
v 22 33 -1
v 22 34 -1
v 23 33 -1
v 23 34 -1
v 24 33 -1
v 24 34 -1
v 22 33 -3
v 22 34 -3
v 23 33 -3
v 23 34 -3
v 7 42 -4
v 7 43 -4
v 8 42 -4
v 8 43 -4
v -14 0 11
v -14 1 11
v -14 10 11
v -7 0 11
v -7 1 11
v 5 0 11
v 5 10 11
v 7 42 1
v 7 43 1
v 8 42 1
v 8 43 1
v 22 33 -0
v 22 34 -0
v 23 33 -0
v 23 34 -0
v 7 42 -2
v 7 43 -2
v 8 42 -2
v 8 43 -2
v 22 33 -2
v 22 34 -2
v 23 33 -2
v 23 34 -2
v 24 33 -2
v 24 34 -2
v 7 42 -5
v 7 43 -5
v 8 42 -5
v 8 43 -5
v 15 34 -6
v 15 37 -6
v 15 39 -6
v 17 34 -6
v 17 37 -6
v 18 34 -6
v 18 39 -6
v 5 0 -7
v 5 42 -7
v 15 1 -7
v 15 32 -7
v 15 34 -7
v 15 39 -7
v 16 0 -7
v 16 1 -7
v 16 31 -7
v 18 34 -7
v 18 39 -7
v 23 31 -7
v 23 32 -7
v 23 42 -7
v -23 0 -10
v -23 10 -10
v -21 0 -10
v -21 8 -10
v -14 0 -10
v -14 8 -10
v -14 10 -10
v -23 0 20
v 16 0 20
v -21 0 12
v -7 0 12
v -14 0 11
v -7 0 11
v 5 0 11
v 5 0 -7
v 16 0 -7
v -23 0 -10
v -21 0 -10
v -14 0 -10
v 16 31 4
v 23 31 4
v 16 31 -7
v 23 31 -7
v 23 33 -1
v 24 33 -1
v 23 33 -2
v 24 33 -2
v 22 34 -0
v 23 34 -0
v 22 34 -1
v 23 34 -1
v 22 34 -2
v 23 34 -2
v 22 34 -3
v 23 34 -3
v 15 38 4
v 18 38 4
v 15 38 3
v 18 38 3
v 15 39 -6
v 18 39 -6
v 15 39 -7
v 18 39 -7
v -23 10 20
v 16 10 20
v -14 10 11
v 5 10 11
v 5 10 4
v 15 10 4
v 16 10 4
v -23 10 -10
v -14 10 -10
v 22 33 -0
v 23 33 -0
v 22 33 -1
v 23 33 -1
v 22 33 -2
v 23 33 -2
v 22 33 -3
v 23 33 -3
v 15 34 4
v 18 34 4
v 15 34 3
v 17 34 3
v 18 34 3
v 23 34 -1
v 24 34 -1
v 23 34 -2
v 24 34 -2
v 15 34 -6
v 17 34 -6
v 18 34 -6
v 15 34 -7
v 18 34 -7
v 5 42 4
v 23 42 4
v 7 42 2
v 8 42 2
v 7 42 1
v 8 42 1
v 7 42 -1
v 8 42 -1
v 15 42 -1
v 23 42 -1
v 7 42 -2
v 8 42 -2
v 15 42 -2
v 23 42 -2
v 7 42 -4
v 8 42 -4
v 7 42 -5
v 8 42 -5
v 5 42 -7
v 23 42 -7
v 7 43 2
v 8 43 2
v 7 43 1
v 8 43 1
v 7 43 -1
v 8 43 -1
v 7 43 -2
v 8 43 -2
v 7 43 -4
v 8 43 -4
v 7 43 -5
v 8 43 -5

# faces
f 3/3/1 2/3/1 1/3/1
f 4/3/1 2/3/1 3/3/1
f 7/3/1 6/3/1 5/3/1
f 8/3/1 6/3/1 7/3/1
f 9/3/1 6/3/1 8/3/1
f 10/3/1 6/3/1 9/3/1
f 17/4/1 12/4/1 11/4/1
f 18/4/1 12/4/1 17/4/1
f 19/4/1 14/4/1 13/4/1
f 20/4/1 14/4/1 19/4/1
f 21/4/1 16/4/1 15/4/1
f 22/4/1 16/4/1 21/4/1
f 27/3/1 24/3/1 23/3/1
f 28/3/1 24/3/1 27/3/1
f 29/3/1 26/3/1 25/3/1
f 30/3/1 26/3/1 29/3/1
f 31/4/2 32/4/2 33/4/2
f 33/4/2 32/4/2 34/4/2
f 33/3/2 34/3/2 35/3/2
f 34/4/2 32/4/2 35/4/2
f 35/4/2 32/4/2 36/4/2
f 33/3/2 35/3/2 37/3/2
f 35/3/2 36/3/2 37/3/2
f 37/3/2 36/3/2 38/3/2
f 39/4/2 40/4/2 45/4/2
f 45/4/2 40/4/2 46/4/2
f 41/4/2 42/4/2 47/4/2
f 47/4/2 42/4/2 48/4/2
f 43/4/2 44/4/2 49/4/2
f 49/4/2 44/4/2 50/4/2
f 51/3/2 52/3/2 55/3/2
f 53/3/2 54/3/2 56/3/2
f 51/3/2 55/3/2 57/3/2
f 57/3/2 55/3/2 58/3/2
f 56/3/2 54/3/2 59/3/2
f 59/3/2 54/3/2 60/3/2
f 61/3/2 62/3/2 63/3/2
f 63/3/2 62/3/2 64/3/2
f 61/3/2 63/3/2 65/3/2
f 63/4/2 64/4/2 66/4/2
f 65/3/2 63/3/2 66/3/2
f 66/4/2 64/4/2 67/4/2
f 67/4/2 64/4/2 68/4/2
f 69/3/2 70/3/2 73/3/2
f 73/3/2 70/3/2 74/3/2
f 71/3/2 72/3/2 75/3/2
f 75/3/2 72/3/2 76/3/2
f 77/4/2 78/4/2 79/4/2
f 79/4/2 78/4/2 80/4/2
f 79/3/2 80/3/2 81/3/2
f 81/3/2 80/3/2 82/3/2
f 82/3/2 80/3/2 83/3/2
f 83/3/2 80/3/2 84/3/2
f 79/3/2 81/3/2 85/3/2
f 84/3/2 80/3/2 88/3/2
f 86/3/2 87/3/2 89/3/2
f 87/3/2 88/3/2 89/3/2
f 85/3/2 86/3/2 89/3/2
f 89/3/2 88/3/2 90/3/2
f 79/3/2 85/3/2 91/3/2
f 85/3/2 89/3/2 91/3/2
f 89/4/2 90/4/2 92/4/2
f 91/3/2 89/3/2 92/3/2
f 90/3/2 88/3/2 93/3/2
f 92/4/2 90/4/2 93/4/2
f 88/3/2 80/3/2 94/3/2
f 93/3/2 88/3/2 94/3/2
f 95/2/2 96/2/2 97/2/2
f 97/2/2 96/2/2 98/2/2
f 101/3/3 100/3/3 99/3/3
f 102/3/3 100/3/3 101/3/3
f 105/3/3 104/3/3 103/3/3
f 106/3/3 104/3/3 105/3/3
f 107/3/3 104/3/3 106/3/3
f 108/3/3 104/3/3 107/3/3
f 109/4/3 106/4/3 105/4/3
f 110/4/3 106/4/3 109/4/3
f 111/3/3 107/3/3 106/3/3
f 112/3/3 104/3/3 108/3/3
f 113/4/3 106/4/3 110/4/3
f 114/3/3 111/3/3 106/3/3
f 114/4/3 106/4/3 113/4/3
f 114/3/3 112/3/3 111/3/3
f 115/3/3 104/3/3 112/3/3
f 115/3/3 112/3/3 114/3/3
f 119/1/3 117/1/3 116/1/3
f 120/3/3 118/3/3 117/3/3
f 120/1/3 117/1/3 119/1/3
f 121/3/3 120/3/3 119/3/3
f 122/3/3 118/3/3 120/3/3
f 122/3/3 120/3/3 121/3/3
f 125/4/3 124/4/3 123/4/3
f 126/4/3 124/4/3 125/4/3
f 129/4/3 128/4/3 127/4/3
f 130/4/3 128/4/3 129/4/3
f 133/2/3 132/2/3 131/2/3
f 134/2/3 132/2/3 133/2/3
f 135/2/3 134/2/3 133/2/3
f 136/2/3 134/2/3 135/2/3
f 139/3/3 138/3/3 137/3/3
f 140/3/3 138/3/3 139/3/3
f 143/4/3 142/4/3 141/4/3
f 144/4/3 142/4/3 143/4/3
f 145/4/4 146/4/4 148/4/4
f 146/3/4 147/3/4 149/3/4
f 148/4/4 146/4/4 149/4/4
f 148/3/4 149/3/4 150/3/4
f 149/3/4 147/3/4 151/3/4
f 150/3/4 149/3/4 151/3/4
f 152/4/4 153/4/4 154/4/4
f 154/4/4 153/4/4 155/4/4
f 156/3/4 157/3/4 158/3/4
f 158/3/4 157/3/4 159/3/4
f 160/4/4 161/4/4 162/4/4
f 162/4/4 161/4/4 163/4/4
f 164/2/4 165/2/4 166/2/4
f 166/2/4 165/2/4 167/2/4
f 166/2/4 167/2/4 168/2/4
f 168/2/4 167/2/4 169/2/4
f 170/4/4 171/4/4 172/4/4
f 172/4/4 171/4/4 173/4/4
f 174/1/4 175/1/4 177/1/4
f 175/3/4 176/3/4 178/3/4
f 177/1/4 175/1/4 178/1/4
f 177/3/4 178/3/4 179/3/4
f 178/3/4 176/3/4 180/3/4
f 179/3/4 178/3/4 180/3/4
f 181/3/4 182/3/4 183/3/4
f 183/3/4 182/3/4 184/3/4
f 184/3/4 182/3/4 185/3/4
f 185/3/4 182/3/4 186/3/4
f 181/3/4 183/3/4 187/3/4
f 183/4/4 184/4/4 188/4/4
f 187/3/4 183/3/4 188/3/4
f 188/4/4 184/4/4 189/4/4
f 184/3/4 185/3/4 190/3/4
f 186/3/4 182/3/4 191/3/4
f 189/4/4 184/4/4 192/4/4
f 184/3/4 190/3/4 193/3/4
f 192/4/4 184/4/4 193/4/4
f 190/3/4 191/3/4 193/3/4
f 191/3/4 182/3/4 194/3/4
f 193/3/4 191/3/4 194/3/4
f 195/3/4 196/3/4 197/3/4
f 197/3/4 196/3/4 198/3/4
f 197/4/4 198/4/4 199/4/4
f 198/3/4 196/3/4 200/3/4
f 199/4/4 198/4/4 200/4/4
f 200/3/4 196/3/4 201/3/4
f 204/3/5 203/3/5 202/3/5
f 205/3/5 203/3/5 204/3/5
f 206/4/5 205/4/5 204/4/5
f 207/3/5 203/3/5 205/3/5
f 207/4/5 205/4/5 206/4/5
f 208/3/5 203/3/5 207/3/5
f 209/3/5 203/3/5 208/3/5
f 210/3/5 203/3/5 209/3/5
f 211/3/5 204/3/5 202/3/5
f 212/4/5 206/4/5 204/4/5
f 212/3/5 204/3/5 211/3/5
f 213/4/5 206/4/5 212/4/5
f 216/4/5 215/4/5 214/4/5
f 217/4/5 215/4/5 216/4/5
f 220/2/5 219/2/5 218/2/5
f 221/2/5 219/2/5 220/2/5
f 224/3/5 223/3/5 222/3/5
f 225/3/5 223/3/5 224/3/5
f 228/3/5 227/3/5 226/3/5
f 229/3/5 227/3/5 228/3/5
f 232/3/5 231/3/5 230/3/5
f 233/3/5 231/3/5 232/3/5
f 236/3/5 235/3/5 234/3/5
f 237/3/5 235/3/5 236/3/5
f 238/3/6 239/3/6 240/3/6
f 240/3/6 239/3/6 241/3/6
f 241/3/6 239/3/6 242/3/6
f 242/3/6 239/3/6 243/3/6
f 243/3/6 239/3/6 244/3/6
f 238/3/6 240/3/6 245/3/6
f 245/3/6 240/3/6 246/3/6
f 247/3/6 248/3/6 249/3/6
f 249/3/6 248/3/6 250/3/6
f 251/3/6 252/3/6 253/3/6
f 253/3/6 252/3/6 254/3/6
f 255/3/6 256/3/6 257/3/6
f 257/3/6 256/3/6 258/3/6
f 258/3/6 256/3/6 259/3/6
f 260/2/6 261/2/6 262/2/6
f 262/2/6 261/2/6 263/2/6
f 264/3/6 265/3/6 267/3/6
f 265/3/6 266/3/6 267/3/6
f 267/3/6 266/3/6 268/3/6
f 269/3/6 270/3/6 271/3/6
f 271/3/6 270/3/6 272/3/6
f 269/3/6 271/3/6 273/3/6
f 272/3/6 270/3/6 274/3/6
f 269/3/6 273/3/6 275/3/6
f 273/3/6 274/3/6 275/3/6
f 274/3/6 270/3/6 276/3/6
f 275/3/6 274/3/6 276/3/6
f 276/3/6 270/3/6 277/3/6
f 277/3/6 270/3/6 278/3/6
f 269/3/6 275/3/6 279/3/6
f 276/3/6 277/3/6 280/3/6
f 277/4/6 278/4/6 281/4/6
f 280/3/6 277/3/6 281/3/6
f 281/4/6 278/4/6 282/4/6
f 279/3/6 280/3/6 283/3/6
f 269/3/6 279/3/6 283/3/6
f 281/3/6 282/3/6 283/3/6
f 280/3/6 281/3/6 283/3/6
f 283/3/6 282/3/6 284/3/6
f 269/3/6 283/3/6 285/3/6
f 284/3/6 282/3/6 286/3/6
f 269/3/6 285/3/6 287/3/6
f 285/3/6 286/3/6 287/3/6
f 286/3/6 282/3/6 288/3/6
f 287/3/6 286/3/6 288/3/6
f 289/4/6 290/4/6 291/4/6
f 291/4/6 290/4/6 292/4/6
f 293/4/6 294/4/6 295/4/6
f 295/4/6 294/4/6 296/4/6
f 297/4/6 298/4/6 299/4/6
f 299/4/6 298/4/6 300/4/6
