# MagicaVoxel @ ephtracy

# material
mtllib vampire2.mtl
usemtl palette

# normals
vn -1 0 0
vn 1 0 0
vn 0 0 1
vn 0 0 -1
vn 0 -1 0
vn 0 1 0

# texcoords
vt 0.677734 0.5
vt 0.787109 0.5
vt 0.845703 0.5
vt 0.857422 0.5
vt 0.865234 0.5

# verts
v -18.5 0 17.5
v -18.5 0 16.5
v -18.5 0 7.5
v -18.5 0 5.5
v -18.5 0 -5.5
v -18.5 0 -7.5
v -18.5 0 -16.5
v -18.5 1 -9.5
v -18.5 1 -11.5
v -18.5 3 16.5
v -18.5 3 15.5
v -18.5 3 -4.5
v -18.5 3 -5.5
v -18.5 3 -7.5
v -18.5 3 -9.5
v -18.5 3 -11.5
v -18.5 3 -13.5
v -18.5 4 17.5
v -18.5 4 15.5
v -18.5 4 7.5
v -18.5 4 5.5
v -18.5 4 -4.5
v -18.5 4 -13.5
v -18.5 4 -16.5
v -16.5 4 8.5
v -16.5 4 3.5
v -16.5 9 8.5
v -16.5 9 3.5
v -14.5 19 -1.5
v -14.5 19 -6.5
v -14.5 24 -1.5
v -14.5 24 -6.5
v -12.5 4 11.5
v -12.5 4 8.5
v -12.5 4 3.5
v -12.5 4 -10.5
v -12.5 5 11.5
v -12.5 5 8.5
v -12.5 5 3.5
v -12.5 5 -10.5
v 2.5 5 11.5
v 2.5 5 5.5
v 2.5 6 11.5
v 2.5 6 5.5
v 4.5 9 -0.5
v 4.5 9 -5.5
v 4.5 14 -0.5
v 4.5 14 -5.5
v 13.5 21 -2.5
v 13.5 21 -7.5
v 13.5 26 -2.5
v 13.5 26 -7.5
v -11.5 5 8.5
v -11.5 5 7.5
v -11.5 5 3.5
v -11.5 8 7.5
v -11.5 8 3.5
v -11.5 9 8.5
v -11.5 9 3.5
v -9.5 19 -1.5
v -9.5 19 -6.5
v -9.5 24 -1.5
v -9.5 24 -6.5
v 8.5 5 11.5
v 8.5 5 5.5
v 8.5 6 11.5
v 8.5 6 5.5
v 9.5 9 -0.5
v 9.5 9 -5.5
v 9.5 14 -0.5
v 9.5 14 -5.5
v 13.5 4 11.5
v 13.5 4 -10.5
v 13.5 5 11.5
v 13.5 5 -10.5
v 18.5 21 -2.5
v 18.5 21 -7.5
v 18.5 26 -2.5
v 18.5 26 -7.5
v 19.5 0 17.5
v 19.5 0 -15.5
v 19.5 0 -16.5
v 19.5 1 9.5
v 19.5 1 6.5
v 19.5 1 -5.5
v 19.5 1 -7.5
v 19.5 1 -11.5
v 19.5 1 -13.5
v 19.5 2 10.5
v 19.5 2 9.5
v 19.5 2 6.5
v 19.5 2 3.5
v 19.5 2 -0.5
v 19.5 2 -3.5
v 19.5 3 15.5
v 19.5 3 10.5
v 19.5 3 3.5
v 19.5 3 -3.5
v 19.5 3 -5.5
v 19.5 3 -13.5
v 19.5 3 -15.5
v 19.5 4 17.5
v 19.5 4 15.5
v 19.5 4 10.5
v 19.5 4 -0.5
v 19.5 4 -7.5
v 19.5 4 -11.5
v 19.5 4 -16.5
v -18.5 0 17.5
v -18.5 4 17.5
v -17.5 0 17.5
v -17.5 3 17.5
v -15.5 1 17.5
v -15.5 3 17.5
v -13.5 1 17.5
v -13.5 3 17.5
v -11.5 3 17.5
v -11.5 4 17.5
v 4.5 3 17.5
v 4.5 4 17.5
v 5.5 0 17.5
v 5.5 3 17.5
v 7.5 0 17.5
v 7.5 3 17.5
v 9.5 1 17.5
v 9.5 3 17.5
v 11.5 1 17.5
v 11.5 3 17.5
v 12.5 3 17.5
v 12.5 4 17.5
v 19.5 0 17.5
v 19.5 4 17.5
v -12.5 4 11.5
v -12.5 5 11.5
v 2.5 4 11.5
v 2.5 5 11.5
v 2.5 6 11.5
v 8.5 4 11.5
v 8.5 5 11.5
v 8.5 6 11.5
v 13.5 4 11.5
v 13.5 5 11.5
v -16.5 4 8.5
v -16.5 9 8.5
v -12.5 4 8.5
v -12.5 5 8.5
v -11.5 5 8.5
v -11.5 9 8.5
v 4.5 9 -0.5
v 4.5 14 -0.5
v 9.5 9 -0.5
v 9.5 14 -0.5
v -14.5 19 -1.5
v -14.5 24 -1.5
v -9.5 19 -1.5
v -9.5 24 -1.5
v 13.5 21 -2.5
v 13.5 26 -2.5
v 18.5 21 -2.5
v 18.5 26 -2.5
v 2.5 5 5.5
v 2.5 6 5.5
v 8.5 5 5.5
v 8.5 6 5.5
v -16.5 4 3.5
v -16.5 9 3.5
v -15.5 4 3.5
v -15.5 8 3.5
v -12.5 4 3.5
v -12.5 5 3.5
v -11.5 5 3.5
v -11.5 8 3.5
v -11.5 9 3.5
v 4.5 9 -5.5
v 4.5 14 -5.5
v 9.5 9 -5.5
v 9.5 14 -5.5
v -14.5 19 -6.5
v -14.5 24 -6.5
v -9.5 19 -6.5
v -9.5 24 -6.5
v 13.5 21 -7.5
v 13.5 26 -7.5
v 18.5 21 -7.5
v 18.5 26 -7.5
v -12.5 4 -10.5
v -12.5 5 -10.5
v 13.5 4 -10.5
v 13.5 5 -10.5
v -18.5 0 -16.5
v -18.5 4 -16.5
v -12.5 3 -16.5
v -12.5 4 -16.5
v -8.5 2 -16.5
v -8.5 3 -16.5
v -5.5 2 -16.5
v -5.5 3 -16.5
v -2.5 1 -16.5
v -2.5 3 -16.5
v 0.5 1 -16.5
v 0.5 4 -16.5
v 13.5 1 -16.5
v 13.5 4 -16.5
v 15.5 1 -16.5
v 15.5 3 -16.5
v 17.5 0 -16.5
v 17.5 3 -16.5
v 19.5 0 -16.5
v 19.5 4 -16.5
v -18.5 0 17.5
v -17.5 0 17.5
v 5.5 0 17.5
v 7.5 0 17.5
v 19.5 0 17.5
v -18.5 0 16.5
v -17.5 0 16.5
v 5.5 0 16.5
v 7.5 0 16.5
v -3.5 0 9.5
v 7.5 0 9.5
v -3.5 0 8.5
v 7.5 0 8.5
v -18.5 0 7.5
v -17.5 0 7.5
v -18.5 0 5.5
v -17.5 0 5.5
v -18.5 0 -5.5
v -17.5 0 -5.5
v -18.5 0 -7.5
v -17.5 0 -7.5
v 17.5 0 -15.5
v 19.5 0 -15.5
v -18.5 0 -16.5
v 17.5 0 -16.5
v 19.5 0 -16.5
v 4.5 9 -0.5
v 9.5 9 -0.5
v 4.5 9 -5.5
v 9.5 9 -5.5
v -14.5 19 -1.5
v -9.5 19 -1.5
v -14.5 19 -6.5
v -9.5 19 -6.5
v 13.5 21 -2.5
v 18.5 21 -2.5
v 13.5 21 -7.5
v 18.5 21 -7.5
v -18.5 4 17.5
v -11.5 4 17.5
v 4.5 4 17.5
v 12.5 4 17.5
v 19.5 4 17.5
v 4.5 4 16.5
v 12.5 4 16.5
v -18.5 4 15.5
v -11.5 4 15.5
v 18.5 4 15.5
v 19.5 4 15.5
v -12.5 4 11.5
v 2.5 4 11.5
v 8.5 4 11.5
v 13.5 4 11.5
v 18.5 4 10.5
v 19.5 4 10.5
v -16.5 4 8.5
v -12.5 4 8.5
v -18.5 4 7.5
v -17.5 4 7.5
v -18.5 4 5.5
v -17.5 4 5.5
v -16.5 4 3.5
v -15.5 4 3.5
v -12.5 4 3.5
v 16.5 4 2.5
v 18.5 4 2.5
v 18.5 4 -0.5
v 19.5 4 -0.5
v 16.5 4 -3.5
v 18.5 4 -3.5
v -18.5 4 -4.5
v -17.5 4 -4.5
v 18.5 4 -7.5
v 19.5 4 -7.5
v -12.5 4 -10.5
v 13.5 4 -10.5
v 18.5 4 -11.5
v 19.5 4 -11.5
v -18.5 4 -13.5
v -17.5 4 -13.5
v -5.5 4 -13.5
v 3.5 4 -13.5
v -12.5 4 -15.5
v -5.5 4 -15.5
v 0.5 4 -15.5
v 3.5 4 -15.5
v 13.5 4 -15.5
v 18.5 4 -15.5
v -18.5 4 -16.5
v -12.5 4 -16.5
v 0.5 4 -16.5
v 13.5 4 -16.5
v 19.5 4 -16.5
v -12.5 5 11.5
v 2.5 5 11.5
v 8.5 5 11.5
v 13.5 5 11.5
v -12.5 5 8.5
v -11.5 5 8.5
v -11.5 5 7.5
v 2.5 5 5.5
v 8.5 5 5.5
v -12.5 5 3.5
v -11.5 5 3.5
v -12.5 5 -10.5
v 13.5 5 -10.5
v 2.5 6 11.5
v 8.5 6 11.5
v 2.5 6 5.5
v 8.5 6 5.5
v -16.5 9 8.5
v -11.5 9 8.5
v -16.5 9 3.5
v -11.5 9 3.5
v 4.5 14 -0.5
v 9.5 14 -0.5
v 4.5 14 -5.5
v 9.5 14 -5.5
v -14.5 24 -1.5
v -9.5 24 -1.5
v -14.5 24 -6.5
v -9.5 24 -6.5
v 13.5 26 -2.5
v 18.5 26 -2.5
v 13.5 26 -7.5
v 18.5 26 -7.5

# faces
f 8/2/1 7/2/1 6/2/1
f 9/2/1 7/2/1 8/2/1
f 10/4/1 2/4/1 1/4/1
f 10/2/1 3/2/1 2/2/1
f 11/2/1 3/2/1 10/2/1
f 12/2/1 5/2/1 4/2/1
f 13/4/1 6/4/1 5/4/1
f 13/2/1 5/2/1 12/2/1
f 14/2/1 8/2/1 6/2/1
f 14/4/1 6/4/1 13/4/1
f 15/4/1 9/4/1 8/4/1
f 15/2/1 8/2/1 14/2/1
f 16/2/1 7/2/1 9/2/1
f 16/4/1 9/4/1 15/4/1
f 17/2/1 7/2/1 16/2/1
f 18/4/1 10/4/1 1/4/1
f 18/4/1 11/4/1 10/4/1
f 19/2/1 3/2/1 11/2/1
f 19/4/1 11/4/1 18/4/1
f 20/4/1 4/4/1 3/4/1
f 20/2/1 3/2/1 19/2/1
f 21/2/1 12/2/1 4/2/1
f 21/4/1 4/4/1 20/4/1
f 22/4/1 15/4/1 14/4/1
f 22/2/1 12/2/1 21/2/1
f 22/4/1 14/4/1 13/4/1
f 22/4/1 16/4/1 15/4/1
f 22/4/1 17/4/1 16/4/1
f 22/4/1 13/4/1 12/4/1
f 23/2/1 7/2/1 17/2/1
f 23/4/1 17/4/1 22/4/1
f 24/2/1 7/2/1 23/2/1
f 27/3/1 26/3/1 25/3/1
f 28/3/1 26/3/1 27/3/1
f 31/3/1 30/3/1 29/3/1
f 32/3/1 30/3/1 31/3/1
f 37/4/1 34/4/1 33/4/1
f 38/4/1 34/4/1 37/4/1
f 39/4/1 36/4/1 35/4/1
f 40/4/1 36/4/1 39/4/1
f 43/3/1 42/3/1 41/3/1
f 44/3/1 42/3/1 43/3/1
f 47/3/1 46/3/1 45/3/1
f 48/3/1 46/3/1 47/3/1
f 51/3/1 50/3/1 49/3/1
f 52/3/1 50/3/1 51/3/1
f 53/3/2 54/3/2 56/3/2
f 54/4/2 55/4/2 56/4/2
f 56/4/2 55/4/2 57/4/2
f 53/3/2 56/3/2 58/3/2
f 56/3/2 57/3/2 58/3/2
f 58/3/2 57/3/2 59/3/2
f 60/3/2 61/3/2 62/3/2
f 62/3/2 61/3/2 63/3/2
f 64/3/2 65/3/2 66/3/2
f 66/3/2 65/3/2 67/3/2
f 68/3/2 69/3/2 70/3/2
f 70/3/2 69/3/2 71/3/2
f 72/4/2 73/4/2 74/4/2
f 74/4/2 73/4/2 75/4/2
f 76/3/2 77/3/2 78/3/2
f 78/3/2 77/3/2 79/3/2
f 80/2/2 81/2/2 83/2/2
f 83/2/2 81/2/2 84/2/2
f 84/2/2 81/2/2 85/2/2
f 85/2/2 81/2/2 86/2/2
f 86/2/2 81/2/2 87/2/2
f 87/2/2 81/2/2 88/2/2
f 80/2/2 83/2/2 89/2/2
f 83/4/2 84/4/2 90/4/2
f 89/2/2 83/2/2 90/2/2
f 84/2/2 85/2/2 91/2/2
f 90/4/2 84/4/2 91/4/2
f 91/2/2 85/2/2 92/2/2
f 92/2/2 85/2/2 93/2/2
f 93/2/2 85/2/2 94/2/2
f 80/2/2 89/2/2 95/2/2
f 89/4/2 90/4/2 96/4/2
f 95/2/2 89/2/2 96/2/2
f 90/4/2 91/4/2 96/4/2
f 91/4/2 92/4/2 96/4/2
f 92/2/2 93/2/2 97/2/2
f 96/4/2 92/4/2 97/4/2
f 94/2/2 85/2/2 98/2/2
f 93/4/2 94/4/2 98/4/2
f 85/4/2 86/4/2 99/4/2
f 98/2/2 85/2/2 99/2/2
f 88/2/2 81/2/2 100/2/2
f 87/4/2 88/4/2 100/4/2
f 81/4/2 82/4/2 101/4/2
f 100/2/2 81/2/2 101/2/2
f 80/2/2 95/2/2 102/2/2
f 95/4/2 96/4/2 103/4/2
f 102/2/2 95/2/2 103/2/2
f 96/2/2 97/2/2 104/2/2
f 103/4/2 96/4/2 104/4/2
f 97/2/2 93/2/2 105/2/2
f 104/2/2 97/2/2 105/2/2
f 93/4/2 98/4/2 105/4/2
f 98/4/2 99/4/2 105/4/2
f 99/4/2 86/4/2 106/4/2
f 105/4/2 99/4/2 106/4/2
f 86/2/2 87/2/2 106/2/2
f 87/4/2 100/4/2 107/4/2
f 106/2/2 87/2/2 107/2/2
f 100/4/2 101/4/2 107/4/2
f 101/4/2 82/4/2 108/4/2
f 107/4/2 101/4/2 108/4/2
f 111/4/3 110/4/3 109/4/3
f 112/4/3 110/4/3 111/4/3
f 113/2/3 112/2/3 111/2/3
f 114/4/3 110/4/3 112/4/3
f 114/2/3 112/2/3 113/2/3
f 115/2/3 113/2/3 111/2/3
f 115/4/3 114/4/3 113/4/3
f 116/4/3 110/4/3 114/4/3
f 116/4/3 114/4/3 115/4/3
f 117/2/3 116/2/3 115/2/3
f 117/4/3 110/4/3 116/4/3
f 118/4/3 110/4/3 117/4/3
f 119/2/3 117/2/3 115/2/3
f 119/2/3 118/2/3 117/2/3
f 120/2/3 118/2/3 119/2/3
f 121/2/3 115/2/3 111/2/3
f 121/2/3 119/2/3 115/2/3
f 122/4/3 120/4/3 119/4/3
f 122/2/3 119/2/3 121/2/3
f 123/4/3 122/4/3 121/4/3
f 124/4/3 120/4/3 122/4/3
f 124/4/3 122/4/3 123/4/3
f 125/2/3 124/2/3 123/2/3
f 126/4/3 120/4/3 124/4/3
f 126/2/3 124/2/3 125/2/3
f 127/2/3 125/2/3 123/2/3
f 127/4/3 126/4/3 125/4/3
f 128/4/3 120/4/3 126/4/3
f 128/4/3 126/4/3 127/4/3
f 129/2/3 128/2/3 127/2/3
f 129/4/3 120/4/3 128/4/3
f 130/4/3 120/4/3 129/4/3
f 131/2/3 127/2/3 123/2/3
f 131/2/3 129/2/3 127/2/3
f 131/2/3 130/2/3 129/2/3
f 132/2/3 130/2/3 131/2/3
f 135/4/3 134/4/3 133/4/3
f 136/4/3 134/4/3 135/4/3
f 138/3/3 136/3/3 135/3/3
f 138/3/3 137/3/3 136/3/3
f 139/3/3 137/3/3 138/3/3
f 140/3/3 137/3/3 139/3/3
f 141/4/3 139/4/3 138/4/3
f 142/4/3 139/4/3 141/4/3
f 145/3/3 144/3/3 143/3/3
f 146/3/3 144/3/3 145/3/3
f 147/3/3 144/3/3 146/3/3
f 148/3/3 144/3/3 147/3/3
f 151/3/3 150/3/3 149/3/3
f 152/3/3 150/3/3 151/3/3
f 155/3/3 154/3/3 153/3/3
f 156/3/3 154/3/3 155/3/3
f 159/3/3 158/3/3 157/3/3
f 160/3/3 158/3/3 159/3/3
f 161/3/4 162/3/4 163/3/4
f 163/3/4 162/3/4 164/3/4
f 165/3/4 166/3/4 167/3/4
f 167/3/4 166/3/4 168/3/4
f 167/4/4 168/4/4 169/4/4
f 169/4/4 168/4/4 170/4/4
f 170/4/4 168/4/4 171/4/4
f 168/3/4 166/3/4 172/3/4
f 171/4/4 168/4/4 172/4/4
f 172/3/4 166/3/4 173/3/4
f 174/3/4 175/3/4 176/3/4
f 176/3/4 175/3/4 177/3/4
f 178/3/4 179/3/4 180/3/4
f 180/3/4 179/3/4 181/3/4
f 182/3/4 183/3/4 184/3/4
f 184/3/4 183/3/4 185/3/4
f 186/4/4 187/4/4 188/4/4
f 188/4/4 187/4/4 189/4/4
f 190/2/4 191/2/4 192/2/4
f 192/2/4 191/2/4 193/2/4
f 190/2/4 192/2/4 194/2/4
f 192/4/4 193/4/4 195/4/4
f 194/2/4 192/2/4 195/2/4
f 190/2/4 194/2/4 196/2/4
f 194/4/4 195/4/4 196/4/4
f 195/4/4 193/4/4 197/4/4
f 196/4/4 195/4/4 197/4/4
f 190/2/4 196/2/4 198/2/4
f 196/2/4 197/2/4 198/2/4
f 197/4/4 193/4/4 199/4/4
f 198/2/4 197/2/4 199/2/4
f 190/2/4 198/2/4 200/2/4
f 198/4/4 199/4/4 200/4/4
f 199/4/4 193/4/4 201/4/4
f 200/4/4 199/4/4 201/4/4
f 190/2/4 200/2/4 202/2/4
f 200/2/4 201/2/4 202/2/4
f 202/2/4 201/2/4 203/2/4
f 190/2/4 202/2/4 204/2/4
f 202/4/4 203/4/4 204/4/4
f 204/4/4 203/4/4 205/4/4
f 190/2/4 204/2/4 206/2/4
f 204/2/4 205/2/4 206/2/4
f 205/4/4 203/4/4 207/4/4
f 206/2/4 205/2/4 207/2/4
f 206/4/4 207/4/4 208/4/4
f 207/4/4 203/4/4 209/4/4
f 208/4/4 207/4/4 209/4/4
f 215/4/5 211/4/5 210/4/5
f 216/2/5 212/2/5 211/2/5
f 216/4/5 211/4/5 215/4/5
f 217/4/5 213/4/5 212/4/5
f 217/2/5 212/2/5 216/2/5
f 218/2/5 214/2/5 213/2/5
f 218/4/5 213/4/5 217/4/5
f 219/2/5 217/2/5 216/2/5
f 219/2/5 216/2/5 215/2/5
f 219/2/5 218/2/5 217/2/5
f 220/2/5 214/2/5 218/2/5
f 220/2/5 218/2/5 219/2/5
f 221/2/5 219/2/5 215/2/5
f 221/5/5 220/5/5 219/5/5
f 222/2/5 214/2/5 220/2/5
f 222/5/5 220/5/5 221/5/5
f 223/2/5 221/2/5 215/2/5
f 223/2/5 222/2/5 221/2/5
f 224/2/5 222/2/5 223/2/5
f 225/4/5 224/4/5 223/4/5
f 226/2/5 222/2/5 224/2/5
f 226/4/5 224/4/5 225/4/5
f 227/2/5 226/2/5 225/2/5
f 228/2/5 222/2/5 226/2/5
f 228/2/5 226/2/5 227/2/5
f 229/4/5 228/4/5 227/4/5
f 230/2/5 222/2/5 228/2/5
f 230/4/5 228/4/5 229/4/5
f 231/2/5 214/2/5 222/2/5
f 231/2/5 222/2/5 230/2/5
f 231/2/5 230/2/5 229/2/5
f 232/2/5 214/2/5 231/2/5
f 233/2/5 231/2/5 229/2/5
f 234/4/5 232/4/5 231/4/5
f 234/2/5 231/2/5 233/2/5
f 235/4/5 232/4/5 234/4/5
f 238/3/5 237/3/5 236/3/5
f 239/3/5 237/3/5 238/3/5
f 242/3/5 241/3/5 240/3/5
f 243/3/5 241/3/5 242/3/5
f 246/3/5 245/3/5 244/3/5
f 247/3/5 245/3/5 246/3/5
f 249/2/6 250/2/6 253/2/6
f 250/4/6 251/4/6 253/4/6
f 251/2/6 252/2/6 254/2/6
f 253/4/6 251/4/6 254/4/6
f 248/4/6 249/4/6 255/4/6
f 249/2/6 253/2/6 256/2/6
f 255/4/6 249/4/6 256/4/6
f 253/2/6 254/2/6 256/2/6
f 254/2/6 252/2/6 257/2/6
f 256/2/6 254/2/6 257/2/6
f 257/2/6 252/2/6 258/2/6
f 255/2/6 256/2/6 259/2/6
f 256/2/6 257/2/6 259/2/6
f 259/2/6 257/2/6 260/2/6
f 260/2/6 257/2/6 261/2/6
f 261/2/6 257/2/6 262/2/6
f 257/4/6 258/4/6 263/4/6
f 262/2/6 257/2/6 263/2/6
f 263/4/6 258/4/6 264/4/6
f 255/2/6 259/2/6 265/2/6
f 265/2/6 259/2/6 266/2/6
f 255/2/6 265/2/6 267/2/6
f 267/2/6 265/2/6 268/2/6
f 267/4/6 268/4/6 269/4/6
f 268/2/6 265/2/6 270/2/6
f 269/4/6 268/4/6 270/4/6
f 269/2/6 270/2/6 271/2/6
f 270/2/6 265/2/6 271/2/6
f 262/2/6 263/2/6 274/2/6
f 263/2/6 264/2/6 274/2/6
f 274/2/6 264/2/6 275/2/6
f 274/4/6 275/4/6 276/4/6
f 275/2/6 264/2/6 276/2/6
f 276/2/6 264/2/6 277/2/6
f 262/2/6 274/2/6 278/2/6
f 274/4/6 276/4/6 278/4/6
f 276/4/6 277/4/6 278/4/6
f 278/4/6 277/4/6 279/4/6
f 272/2/6 273/2/6 280/2/6
f 271/2/6 272/2/6 280/2/6
f 269/2/6 271/2/6 280/2/6
f 280/2/6 273/2/6 281/2/6
f 279/4/6 277/4/6 282/4/6
f 278/2/6 279/2/6 282/2/6
f 282/4/6 277/4/6 283/4/6
f 281/2/6 273/2/6 284/2/6
f 262/2/6 278/2/6 285/2/6
f 278/2/6 282/2/6 285/2/6
f 282/2/6 283/2/6 285/2/6
f 285/2/6 283/2/6 286/2/6
f 284/2/6 285/2/6 286/2/6
f 286/2/6 283/2/6 287/2/6
f 280/4/6 281/4/6 288/4/6
f 281/2/6 284/2/6 289/2/6
f 288/4/6 281/4/6 289/4/6
f 284/2/6 286/2/6 289/2/6
f 289/2/6 286/2/6 290/2/6
f 290/2/6 286/2/6 291/2/6
f 288/2/6 289/2/6 292/2/6
f 289/2/6 290/2/6 292/2/6
f 290/4/6 291/4/6 293/4/6
f 292/2/6 290/2/6 293/2/6
f 293/4/6 291/4/6 294/4/6
f 291/2/6 286/2/6 295/2/6
f 294/4/6 291/4/6 295/4/6
f 295/2/6 286/2/6 296/2/6
f 286/4/6 287/4/6 297/4/6
f 296/2/6 286/2/6 297/2/6
f 288/2/6 292/2/6 298/2/6
f 293/4/6 294/4/6 299/4/6
f 298/2/6 292/2/6 299/2/6
f 292/4/6 293/4/6 299/4/6
f 295/2/6 296/2/6 300/2/6
f 299/4/6 294/4/6 300/4/6
f 294/2/6 295/2/6 300/2/6
f 296/4/6 297/4/6 301/4/6
f 300/2/6 296/2/6 301/2/6
f 297/4/6 287/4/6 302/4/6
f 301/4/6 297/4/6 302/4/6
f 303/4/6 304/4/6 307/4/6
f 307/4/6 304/4/6 308/4/6
f 308/4/6 304/4/6 309/4/6
f 309/4/6 304/4/6 310/4/6
f 305/4/6 306/4/6 311/4/6
f 309/4/6 310/4/6 313/4/6
f 310/4/6 311/4/6 313/4/6
f 312/4/6 313/4/6 314/4/6
f 311/4/6 306/4/6 315/4/6
f 314/4/6 313/4/6 315/4/6
f 313/4/6 311/4/6 315/4/6
f 316/3/6 317/3/6 318/3/6
f 318/3/6 317/3/6 319/3/6
f 320/3/6 321/3/6 322/3/6
f 322/3/6 321/3/6 323/3/6
f 324/3/6 325/3/6 326/3/6
f 326/3/6 325/3/6 327/3/6
f 328/3/6 329/3/6 330/3/6
f 330/3/6 329/3/6 331/3/6
f 332/3/6 333/3/6 334/3/6
f 334/3/6 333/3/6 335/3/6
