# MagicaVoxel @ ephtracy

# material
mtllib witch1.mtl
usemtl palette

# normals
vn -1 0 0
vn 1 0 0
vn 0 0 1
vn 0 0 -1
vn 0 -1 0
vn 0 1 0

# texcoords
vt 0.373047 0.5
vt 0.669922 0.5

# verts
v -18 12 21
v -18 12 -21
v -18 15 21
v -18 15 -21
v -15 29 4
v -15 29 -4
v -15 33 4
v -15 33 -4
v -7 17 12
v -7 17 -12
v -7 19 12
v -7 19 -12
v -6 15 11
v -6 15 -11
v -6 17 11
v -6 17 -11
v -6 19 11
v -6 19 -11
v -6 24 11
v -6 24 -11
v -2 24 8
v -2 24 -8
v -2 29 4
v -2 29 -4
v -2 30 8
v -2 30 4
v -2 30 -4
v -2 30 -8
v 12 12 9
v 12 12 -9
v 12 15 9
v 12 15 -9
v -5 12 9
v -5 12 -9
v -5 15 9
v -5 15 -9
v 3 30 4
v 3 30 -4
v 3 33 4
v 3 33 -4
v 7 24 8
v 7 24 -8
v 7 30 8
v 7 30 -8
v 13 15 11
v 13 15 3
v 13 15 -3
v 13 15 -11
v 13 16 2
v 13 16 -2
v 13 17 11
v 13 17 3
v 13 17 -3
v 13 17 -11
v 13 19 11
v 13 19 3
v 13 19 -3
v 13 19 -11
v 13 21 2
v 13 21 -2
v 13 22 3
v 13 22 -3
v 13 24 11
v 13 24 -11
v 14 15 3
v 14 15 -3
v 14 16 2
v 14 16 -2
v 14 17 12
v 14 17 3
v 14 17 -3
v 14 17 -12
v 14 19 12
v 14 19 3
v 14 19 -3
v 14 19 -12
v 14 21 2
v 14 21 -2
v 14 22 3
v 14 22 -3
v 20 12 21
v 20 12 -21
v 20 15 21
v 20 15 -21
v -18 12 21
v -18 15 21
v 20 12 21
v 20 15 21
v -7 17 12
v -7 19 12
v 14 17 12
v 14 19 12
v -6 15 11
v -6 17 11
v -6 19 11
v -6 24 11
v 13 15 11
v 13 17 11
v 13 19 11
v 13 24 11
v -2 24 8
v -2 30 8
v 7 24 8
v 7 30 8
v -15 29 4
v -15 33 4
v -2 29 4
v -2 30 4
v 3 30 4
v 3 33 4
v 13 15 3
v 13 17 3
v 13 19 3
v 13 22 3
v 14 15 3
v 14 17 3
v 14 19 3
v 14 22 3
v 13 16 -2
v 13 21 -2
v 14 16 -2
v 14 21 -2
v -5 12 -9
v -5 15 -9
v 12 12 -9
v 12 15 -9
v -5 12 9
v -5 15 9
v 12 12 9
v 12 15 9
v 13 16 2
v 13 21 2
v 14 16 2
v 14 21 2
v 13 15 -3
v 13 17 -3
v 13 19 -3
v 13 22 -3
v 14 15 -3
v 14 17 -3
v 14 19 -3
v 14 22 -3
v -15 29 -4
v -15 33 -4
v -2 29 -4
v -2 30 -4
v 3 30 -4
v 3 33 -4
v -2 24 -8
v -2 30 -8
v 7 24 -8
v 7 30 -8
v -6 15 -11
v -6 17 -11
v -6 19 -11
v -6 24 -11
v 13 15 -11
v 13 17 -11
v 13 19 -11
v 13 24 -11
v -7 17 -12
v -7 19 -12
v 14 17 -12
v 14 19 -12
v -18 12 -21
v -18 15 -21
v 20 12 -21
v 20 15 -21
v -18 12 21
v 20 12 21
v -5 12 9
v 12 12 9
v -5 12 -9
v 12 12 -9
v -18 12 -21
v 20 12 -21
v -5 15 9
v 12 15 9
v -5 15 -9
v 12 15 -9
v -7 17 12
v 14 17 12
v -6 17 11
v 13 17 11
v 13 17 3
v 14 17 3
v 13 17 -3
v 14 17 -3
v -6 17 -11
v 13 17 -11
v -7 17 -12
v 14 17 -12
v 13 21 2
v 14 21 2
v 13 21 -2
v 14 21 -2
v -15 29 4
v -2 29 4
v -15 29 -4
v -2 29 -4
v -18 15 21
v 20 15 21
v -6 15 11
v 13 15 11
v 13 15 3
v 14 15 3
v 13 15 -3
v 14 15 -3
v -6 15 -11
v 13 15 -11
v -18 15 -21
v 20 15 -21
v 13 16 2
v 14 16 2
v 13 16 -2
v 14 16 -2
v -7 19 12
v 14 19 12
v -6 19 11
v 13 19 11
v 13 19 3
v 14 19 3
v 13 19 -3
v 14 19 -3
v -6 19 -11
v 13 19 -11
v -7 19 -12
v 14 19 -12
v 13 22 3
v 14 22 3
v 13 22 -3
v 14 22 -3
v -6 24 11
v 13 24 11
v -2 24 8
v 7 24 8
v -2 24 -8
v 7 24 -8
v -6 24 -11
v 13 24 -11
v -2 30 8
v 7 30 8
v -2 30 4
v 3 30 4
v -2 30 -4
v 3 30 -4
v -2 30 -8
v 7 30 -8
v -15 33 4
v 3 33 4
v -15 33 -4
v 3 33 -4

# faces
f 3/2/1 2/2/1 1/2/1
f 4/2/1 2/2/1 3/2/1
f 7/2/1 6/2/1 5/2/1
f 8/2/1 6/2/1 7/2/1
f 11/1/1 10/1/1 9/1/1
f 12/1/1 10/1/1 11/1/1
f 15/2/1 14/2/1 13/2/1
f 16/2/1 14/2/1 15/2/1
f 19/2/1 18/2/1 17/2/1
f 20/2/1 18/2/1 19/2/1
f 23/2/1 22/2/1 21/2/1
f 24/2/1 22/2/1 23/2/1
f 25/2/1 23/2/1 21/2/1
f 26/2/1 23/2/1 25/2/1
f 27/2/1 22/2/1 24/2/1
f 28/2/1 22/2/1 27/2/1
f 31/2/1 30/2/1 29/2/1
f 32/2/1 30/2/1 31/2/1
f 33/2/2 34/2/2 35/2/2
f 35/2/2 34/2/2 36/2/2
f 37/2/2 38/2/2 39/2/2
f 39/2/2 38/2/2 40/2/2
f 41/2/2 42/2/2 43/2/2
f 43/2/2 42/2/2 44/2/2
f 45/2/2 46/2/2 51/2/2
f 51/2/2 46/2/2 52/2/2
f 47/2/2 48/2/2 53/2/2
f 53/2/2 48/2/2 54/2/2
f 49/2/2 50/2/2 59/2/2
f 59/2/2 50/2/2 60/2/2
f 55/2/2 56/2/2 61/2/2
f 57/2/2 58/2/2 62/2/2
f 55/2/2 61/2/2 63/2/2
f 61/2/2 62/2/2 63/2/2
f 62/2/2 58/2/2 64/2/2
f 63/2/2 62/2/2 64/2/2
f 65/1/2 66/1/2 67/1/2
f 67/1/2 66/1/2 68/1/2
f 65/1/2 67/1/2 70/1/2
f 68/1/2 66/1/2 71/1/2
f 69/1/2 70/1/2 73/1/2
f 70/1/2 67/1/2 74/1/2
f 73/1/2 70/1/2 74/1/2
f 71/1/2 72/1/2 75/1/2
f 68/1/2 71/1/2 75/1/2
f 75/1/2 72/1/2 76/1/2
f 74/1/2 67/1/2 77/1/2
f 68/1/2 75/1/2 78/1/2
f 74/1/2 77/1/2 79/1/2
f 77/1/2 78/1/2 79/1/2
f 78/1/2 75/1/2 80/1/2
f 79/1/2 78/1/2 80/1/2
f 81/2/2 82/2/2 83/2/2
f 83/2/2 82/2/2 84/2/2
f 87/2/3 86/2/3 85/2/3
f 88/2/3 86/2/3 87/2/3
f 91/1/3 90/1/3 89/1/3
f 92/1/3 90/1/3 91/1/3
f 97/2/3 94/2/3 93/2/3
f 98/2/3 94/2/3 97/2/3
f 99/2/3 96/2/3 95/2/3
f 100/2/3 96/2/3 99/2/3
f 103/2/3 102/2/3 101/2/3
f 104/2/3 102/2/3 103/2/3
f 107/2/3 106/2/3 105/2/3
f 108/2/3 106/2/3 107/2/3
f 109/2/3 106/2/3 108/2/3
f 110/2/3 106/2/3 109/2/3
f 115/1/3 112/1/3 111/1/3
f 116/1/3 112/1/3 115/1/3
f 117/1/3 114/1/3 113/1/3
f 118/1/3 114/1/3 117/1/3
f 121/1/3 120/1/3 119/1/3
f 122/1/3 120/1/3 121/1/3
f 125/2/3 124/2/3 123/2/3
f 126/2/3 124/2/3 125/2/3
f 127/2/4 128/2/4 129/2/4
f 129/2/4 128/2/4 130/2/4
f 131/1/4 132/1/4 133/1/4
f 133/1/4 132/1/4 134/1/4
f 135/1/4 136/1/4 139/1/4
f 139/1/4 136/1/4 140/1/4
f 137/1/4 138/1/4 141/1/4
f 141/1/4 138/1/4 142/1/4
f 143/2/4 144/2/4 145/2/4
f 145/2/4 144/2/4 146/2/4
f 146/2/4 144/2/4 147/2/4
f 147/2/4 144/2/4 148/2/4
f 149/2/4 150/2/4 151/2/4
f 151/2/4 150/2/4 152/2/4
f 153/2/4 154/2/4 157/2/4
f 157/2/4 154/2/4 158/2/4
f 155/2/4 156/2/4 159/2/4
f 159/2/4 156/2/4 160/2/4
f 161/1/4 162/1/4 163/1/4
f 163/1/4 162/1/4 164/1/4
f 165/2/4 166/2/4 167/2/4
f 167/2/4 166/2/4 168/2/4
f 171/2/5 170/2/5 169/2/5
f 172/2/5 170/2/5 171/2/5
f 173/2/5 171/2/5 169/2/5
f 174/2/5 170/2/5 172/2/5
f 175/2/5 173/2/5 169/2/5
f 175/2/5 174/2/5 173/2/5
f 176/2/5 170/2/5 174/2/5
f 176/2/5 174/2/5 175/2/5
f 179/2/5 178/2/5 177/2/5
f 180/2/5 178/2/5 179/2/5
f 183/1/5 182/1/5 181/1/5
f 184/1/5 182/1/5 183/1/5
f 185/1/5 182/1/5 184/1/5
f 186/1/5 182/1/5 185/1/5
f 189/1/5 183/1/5 181/1/5
f 190/1/5 188/1/5 187/1/5
f 191/1/5 189/1/5 181/1/5
f 191/1/5 190/1/5 189/1/5
f 192/1/5 188/1/5 190/1/5
f 192/1/5 190/1/5 191/1/5
f 195/1/5 194/1/5 193/1/5
f 196/1/5 194/1/5 195/1/5
f 199/2/5 198/2/5 197/2/5
f 200/2/5 198/2/5 199/2/5
f 201/2/6 202/2/6 203/2/6
f 203/2/6 202/2/6 204/2/6
f 204/2/6 202/2/6 205/2/6
f 205/2/6 202/2/6 206/2/6
f 206/2/6 202/2/6 208/2/6
f 201/2/6 203/2/6 209/2/6
f 207/2/6 208/2/6 210/2/6
f 201/2/6 209/2/6 211/2/6
f 209/2/6 210/2/6 211/2/6
f 210/2/6 208/2/6 212/2/6
f 211/2/6 210/2/6 212/2/6
f 208/2/6 202/2/6 212/2/6
f 213/1/6 214/1/6 215/1/6
f 215/1/6 214/1/6 216/1/6
f 217/1/6 218/1/6 219/1/6
f 219/1/6 218/1/6 220/1/6
f 220/1/6 218/1/6 221/1/6
f 221/1/6 218/1/6 222/1/6
f 217/1/6 219/1/6 225/1/6
f 223/1/6 224/1/6 226/1/6
f 217/1/6 225/1/6 227/1/6
f 225/1/6 226/1/6 227/1/6
f 226/1/6 224/1/6 228/1/6
f 227/1/6 226/1/6 228/1/6
f 229/1/6 230/1/6 231/1/6
f 231/1/6 230/1/6 232/1/6
f 233/2/6 234/2/6 235/2/6
f 235/2/6 234/2/6 236/2/6
f 233/2/6 235/2/6 237/2/6
f 236/2/6 234/2/6 238/2/6
f 233/2/6 237/2/6 239/2/6
f 237/2/6 238/2/6 239/2/6
f 238/2/6 234/2/6 240/2/6
f 239/2/6 238/2/6 240/2/6
f 241/2/6 242/2/6 243/2/6
f 243/2/6 242/2/6 244/2/6
f 244/2/6 242/2/6 246/2/6
f 245/2/6 246/2/6 247/2/6
f 246/2/6 242/2/6 248/2/6
f 247/2/6 246/2/6 248/2/6
f 249/2/6 250/2/6 251/2/6
f 251/2/6 250/2/6 252/2/6
